M48
; DRILL file {KiCad (5.1.5)-3} date 07/02/2021 21:58:24
; FORMAT={-:-/ absolute / inch / decimal}
; #@! TF.CreationDate,2021-02-07T21:58:24+01:00
; #@! TF.GenerationSoftware,Kicad,Pcbnew,(5.1.5)-3
; #@! TF.FileFunction,Plated,1,2,PTH
FMAT,2
INCH
T1C0.0157
T2C0.0280
T3C0.0315
T4C0.0354
T5C0.0374
T6C0.0394
T7C0.0433
T8C0.0512
%
G90
G05
T1
X4.215Y-4.2
X4.25Y-2.45
X4.3Y-3.25
X4.3Y-3.49
X4.3Y-3.75
X4.375Y-4.2
X4.375Y-4.3
X4.555Y-5.385
X4.58Y-2.1
X4.73Y-4.31
X4.75Y-5.385
X4.86Y-4.175
X4.935Y-5.015
X5.065Y-3.925
X5.09Y-4.305
X5.095Y-2.1
X5.1Y-2.85
X5.1Y-3.25
X5.1Y-3.49
X5.1Y-3.75
X5.255Y-4.305
X5.3Y-2.1
X5.3Y-2.85
X5.3025Y-5.3825
X5.3025Y-5.4363
X5.31Y-4.165
X5.4Y-5.085
X5.45Y-3.05
X5.45Y-3.15
X5.45Y-3.25
X5.45Y-3.49
X5.45Y-3.75
X5.55Y-4.3
X5.5525Y-5.5425
X5.7Y-2.45
X5.8Y-2.105
X5.8Y-3.05
X5.8Y-3.25
X5.8Y-3.75
X5.95Y-5.54
X6.07Y-5.44
X6.105Y-4.0
X6.105Y-4.3
X6.17Y-4.199
X6.176Y-5.4375
X6.3Y-3.15
X6.35Y-2.095
X6.365Y-3.245
X6.385Y-4.3
X6.398Y-2.848
X6.445Y-5.255
X6.445Y-5.435
X6.604Y-2.844
X6.804Y-3.15
X6.825Y-2.095
X6.94Y-3.05
X6.94Y-3.63
X6.94Y-4.73
X6.945Y-4.155
X6.945Y-4.24
X7.18Y-2.945
X7.18Y-3.49
X7.185Y-2.4
X7.19Y-4.6
X7.19Y-5.2
X7.26Y-5.315
X7.275Y-5.415
X7.275Y-5.515
X7.28Y-4.025
X7.315Y-5.315
X7.58Y-2.89
X7.58Y-3.2
X7.58Y-3.75
X7.58Y-4.3
X7.58Y-4.87
T2
X4.1492Y-4.612
X4.35Y-4.675
X4.1492Y-4.862
X4.35Y-4.925
T3
X4.95Y-3.23
X4.95Y-3.63
X5.2Y-5.16
X5.6Y-5.16
X4.575Y-4.0
X4.975Y-4.0
X5.2016Y-2.4
X5.3Y-2.4
X6.55Y-3.63
X6.55Y-3.7284
X6.29Y-4.0
X6.29Y-4.6
X6.25Y-3.23
X6.25Y-3.63
X7.42Y-2.45
X7.42Y-2.85
X7.42Y-3.55
X7.42Y-3.95
X6.5016Y-2.4
X6.6Y-2.4
X5.9Y-2.55
X5.9Y-3.05
X6.0Y-2.55
X6.0Y-3.05
X6.1Y-2.55
X6.1Y-3.05
X6.2Y-2.55
X6.2Y-3.05
X6.3Y-2.55
X6.3Y-3.05
X6.4Y-2.55
X6.4Y-3.05
X6.5Y-2.55
X6.5Y-3.05
X6.6Y-2.55
X6.6Y-3.05
X4.6Y-2.55
X4.6Y-3.05
X4.7Y-2.55
X4.7Y-3.05
X4.8Y-2.55
X4.8Y-3.05
X4.9Y-2.55
X4.9Y-3.05
X5.0Y-2.55
X5.0Y-3.05
X5.1Y-2.55
X5.1Y-3.05
X5.2Y-2.55
X5.2Y-3.05
X5.3Y-2.55
X5.3Y-3.05
X4.575Y-4.15
X4.975Y-4.15
X4.8Y-3.23
X4.8Y-3.63
X5.2Y-5.02
X5.6Y-5.02
X4.575Y-4.3
X4.975Y-4.3
X7.42Y-3.0
X7.42Y-3.4
X6.1Y-3.23
X6.1Y-3.63
X4.65Y-3.23
X4.65Y-3.63
X5.95Y-4.0
X5.95Y-4.1
X5.95Y-4.2
X5.95Y-4.3
X5.95Y-4.4
X5.95Y-4.5
X5.95Y-4.6
X5.95Y-4.7
X5.95Y-4.8
X5.95Y-4.9
X5.95Y-5.0
X5.95Y-5.1
X5.95Y-5.2
X5.95Y-5.3
X5.95Y-5.4
X6.55Y-4.0
X6.55Y-4.1
X6.55Y-4.2
X6.55Y-4.3
X6.55Y-4.4
X6.55Y-4.5
X6.55Y-4.6
X6.55Y-4.7
X6.55Y-4.8
X6.55Y-4.9
X6.55Y-5.0
X6.55Y-5.1
X6.55Y-5.2
X6.55Y-5.3
X6.55Y-5.4
X7.42Y-4.1
X7.42Y-4.5
X5.95Y-3.23
X5.95Y-3.63
X6.68Y-4.0016
X6.68Y-4.1
X7.42Y-4.715
X7.42Y-5.115
T4
X6.975Y-2.75
X6.975Y-2.85
X6.985Y-4.4
X6.985Y-4.5
X6.975Y-3.3
X6.975Y-3.4
X6.98Y-5.015
X6.98Y-5.115
X4.925Y-4.65
X4.925Y-4.75
X6.975Y-3.85
X6.975Y-3.95
T5
X7.185Y-3.1016
X7.185Y-3.2
X7.185Y-3.2984
X7.19Y-4.7197
X7.19Y-4.8181
X7.19Y-4.9166
X7.19Y-5.015
X7.195Y-4.2066
X7.195Y-4.305
X7.195Y-4.4034
X7.185Y-3.65
X7.185Y-3.7484
X7.185Y-3.8469
X7.185Y-2.5481
X7.185Y-2.6466
X7.185Y-2.745
X7.19Y-5.3166
X7.19Y-5.415
X7.19Y-5.5134
T6
X5.2025Y-5.315
X5.3025Y-5.315
X5.4025Y-5.315
X5.5025Y-5.315
X5.6025Y-5.315
X5.7025Y-5.315
X4.3Y-2.64
X4.3Y-2.7778
X6.1Y-2.275
X6.2Y-2.275
X6.3Y-2.275
X6.4Y-2.275
X4.8Y-2.275
X4.9Y-2.275
X5.0Y-2.275
X5.1Y-2.275
X4.7Y-2.75
X4.7Y-2.85
X4.8Y-2.75
X4.8Y-2.85
X4.9Y-2.75
X4.9Y-2.85
X4.45Y-4.0
X4.45Y-4.1
X4.45Y-4.2
X4.45Y-4.3
X6.0Y-2.75
X6.0Y-2.85
X6.1Y-2.75
X6.1Y-2.85
X6.2Y-2.75
X6.2Y-2.85
X4.3Y-4.0
X4.3Y-4.1
X4.3Y-4.2
X4.3Y-4.3
X5.61Y-2.64
X5.61Y-2.7778
T7
X4.5728Y-4.565
X4.5728Y-4.8209
X4.75Y-4.565
X4.75Y-4.8209
X5.1Y-4.5641
X5.1Y-4.82
X5.2772Y-4.5641
X5.2772Y-4.82
T8
X4.55Y-5.265
X4.75Y-5.265
X4.95Y-5.265
T0
M30
