G04 #@! TF.GenerationSoftware,KiCad,Pcbnew,(5.1.5)-3*
G04 #@! TF.CreationDate,2021-02-07T21:58:35+01:00*
G04 #@! TF.ProjectId,power-board,706f7765-722d-4626-9f61-72642e6b6963,rev?*
G04 #@! TF.SameCoordinates,Original*
G04 #@! TF.FileFunction,Legend,Bot*
G04 #@! TF.FilePolarity,Positive*
%FSLAX46Y46*%
G04 Gerber Fmt 4.6, Leading zero omitted, Abs format (unit mm)*
G04 Created by KiCad (PCBNEW (5.1.5)-3) date 2021-02-07 21:58:35*
%MOMM*%
%LPD*%
G04 APERTURE LIST*
%ADD10C,0.120000*%
%ADD11C,0.200000*%
%ADD12C,0.300000*%
%ADD13C,0.400000*%
%ADD14C,0.010000*%
G04 APERTURE END LIST*
D10*
X159258000Y-74168000D02*
X150622000Y-74168000D01*
X150622000Y-74168000D02*
X150622000Y-68072000D01*
X159258000Y-68072000D02*
X159258000Y-74168000D01*
X150622000Y-68072000D02*
X159258000Y-68072000D01*
X117602000Y-74168000D02*
X117602000Y-68072000D01*
X126238000Y-74168000D02*
X117602000Y-74168000D01*
X126238000Y-68072000D02*
X126238000Y-74168000D01*
X117602000Y-68072000D02*
X126238000Y-68072000D01*
X130429000Y-136779000D02*
X130429000Y-133223000D01*
X146558000Y-136779000D02*
X130429000Y-136779000D01*
X146558000Y-133350000D02*
X146558000Y-136779000D01*
X130429000Y-133223000D02*
X146558000Y-133350000D01*
X111125000Y-99822000D02*
X111125000Y-110998000D01*
X107442000Y-110998000D02*
X107442000Y-99822000D01*
X114808000Y-110998000D02*
X107442000Y-110998000D01*
X114808000Y-99822000D02*
X114808000Y-110998000D01*
X107442000Y-99822000D02*
X114808000Y-99822000D01*
D11*
X159270571Y-75291904D02*
X159270571Y-74491904D01*
X159003904Y-75063333D01*
X158737238Y-74491904D01*
X158737238Y-75291904D01*
X158394380Y-75253809D02*
X158280095Y-75291904D01*
X158089619Y-75291904D01*
X158013428Y-75253809D01*
X157975333Y-75215714D01*
X157937238Y-75139523D01*
X157937238Y-75063333D01*
X157975333Y-74987142D01*
X158013428Y-74949047D01*
X158089619Y-74910952D01*
X158242000Y-74872857D01*
X158318190Y-74834761D01*
X158356285Y-74796666D01*
X158394380Y-74720476D01*
X158394380Y-74644285D01*
X158356285Y-74568095D01*
X158318190Y-74530000D01*
X158242000Y-74491904D01*
X158051523Y-74491904D01*
X157937238Y-74530000D01*
X157670571Y-74491904D02*
X157175333Y-74491904D01*
X157442000Y-74796666D01*
X157327714Y-74796666D01*
X157251523Y-74834761D01*
X157213428Y-74872857D01*
X157175333Y-74949047D01*
X157175333Y-75139523D01*
X157213428Y-75215714D01*
X157251523Y-75253809D01*
X157327714Y-75291904D01*
X157556285Y-75291904D01*
X157632476Y-75253809D01*
X157670571Y-75215714D01*
X156019371Y-75246184D02*
X156019371Y-74446184D01*
X155752704Y-75017613D01*
X155486038Y-74446184D01*
X155486038Y-75246184D01*
X155143180Y-75208089D02*
X155028895Y-75246184D01*
X154838419Y-75246184D01*
X154762228Y-75208089D01*
X154724133Y-75169994D01*
X154686038Y-75093803D01*
X154686038Y-75017613D01*
X154724133Y-74941422D01*
X154762228Y-74903327D01*
X154838419Y-74865232D01*
X154990800Y-74827137D01*
X155066990Y-74789041D01*
X155105085Y-74750946D01*
X155143180Y-74674756D01*
X155143180Y-74598565D01*
X155105085Y-74522375D01*
X155066990Y-74484280D01*
X154990800Y-74446184D01*
X154800323Y-74446184D01*
X154686038Y-74484280D01*
X154381276Y-74522375D02*
X154343180Y-74484280D01*
X154266990Y-74446184D01*
X154076514Y-74446184D01*
X154000323Y-74484280D01*
X153962228Y-74522375D01*
X153924133Y-74598565D01*
X153924133Y-74674756D01*
X153962228Y-74789041D01*
X154419371Y-75246184D01*
X153924133Y-75246184D01*
X152666571Y-75291904D02*
X152666571Y-74491904D01*
X152399904Y-75063333D01*
X152133238Y-74491904D01*
X152133238Y-75291904D01*
X151790380Y-75253809D02*
X151676095Y-75291904D01*
X151485619Y-75291904D01*
X151409428Y-75253809D01*
X151371333Y-75215714D01*
X151333238Y-75139523D01*
X151333238Y-75063333D01*
X151371333Y-74987142D01*
X151409428Y-74949047D01*
X151485619Y-74910952D01*
X151638000Y-74872857D01*
X151714190Y-74834761D01*
X151752285Y-74796666D01*
X151790380Y-74720476D01*
X151790380Y-74644285D01*
X151752285Y-74568095D01*
X151714190Y-74530000D01*
X151638000Y-74491904D01*
X151447523Y-74491904D01*
X151333238Y-74530000D01*
X150571333Y-75291904D02*
X151028476Y-75291904D01*
X150799904Y-75291904D02*
X150799904Y-74491904D01*
X150876095Y-74606190D01*
X150952285Y-74682380D01*
X151028476Y-74720476D01*
X126250571Y-75266504D02*
X126250571Y-74466504D01*
X125983904Y-75037933D01*
X125717238Y-74466504D01*
X125717238Y-75266504D01*
X125374380Y-75228409D02*
X125260095Y-75266504D01*
X125069619Y-75266504D01*
X124993428Y-75228409D01*
X124955333Y-75190314D01*
X124917238Y-75114123D01*
X124917238Y-75037933D01*
X124955333Y-74961742D01*
X124993428Y-74923647D01*
X125069619Y-74885552D01*
X125222000Y-74847457D01*
X125298190Y-74809361D01*
X125336285Y-74771266D01*
X125374380Y-74695076D01*
X125374380Y-74618885D01*
X125336285Y-74542695D01*
X125298190Y-74504600D01*
X125222000Y-74466504D01*
X125031523Y-74466504D01*
X124917238Y-74504600D01*
X124650571Y-74466504D02*
X124155333Y-74466504D01*
X124422000Y-74771266D01*
X124307714Y-74771266D01*
X124231523Y-74809361D01*
X124193428Y-74847457D01*
X124155333Y-74923647D01*
X124155333Y-75114123D01*
X124193428Y-75190314D01*
X124231523Y-75228409D01*
X124307714Y-75266504D01*
X124536285Y-75266504D01*
X124612476Y-75228409D01*
X124650571Y-75190314D01*
X122973971Y-75266504D02*
X122973971Y-74466504D01*
X122707304Y-75037933D01*
X122440638Y-74466504D01*
X122440638Y-75266504D01*
X122097780Y-75228409D02*
X121983495Y-75266504D01*
X121793019Y-75266504D01*
X121716828Y-75228409D01*
X121678733Y-75190314D01*
X121640638Y-75114123D01*
X121640638Y-75037933D01*
X121678733Y-74961742D01*
X121716828Y-74923647D01*
X121793019Y-74885552D01*
X121945400Y-74847457D01*
X122021590Y-74809361D01*
X122059685Y-74771266D01*
X122097780Y-74695076D01*
X122097780Y-74618885D01*
X122059685Y-74542695D01*
X122021590Y-74504600D01*
X121945400Y-74466504D01*
X121754923Y-74466504D01*
X121640638Y-74504600D01*
X121335876Y-74542695D02*
X121297780Y-74504600D01*
X121221590Y-74466504D01*
X121031114Y-74466504D01*
X120954923Y-74504600D01*
X120916828Y-74542695D01*
X120878733Y-74618885D01*
X120878733Y-74695076D01*
X120916828Y-74809361D01*
X121373971Y-75266504D01*
X120878733Y-75266504D01*
X119773571Y-75291904D02*
X119773571Y-74491904D01*
X119506904Y-75063333D01*
X119240238Y-74491904D01*
X119240238Y-75291904D01*
X118897380Y-75253809D02*
X118783095Y-75291904D01*
X118592619Y-75291904D01*
X118516428Y-75253809D01*
X118478333Y-75215714D01*
X118440238Y-75139523D01*
X118440238Y-75063333D01*
X118478333Y-74987142D01*
X118516428Y-74949047D01*
X118592619Y-74910952D01*
X118745000Y-74872857D01*
X118821190Y-74834761D01*
X118859285Y-74796666D01*
X118897380Y-74720476D01*
X118897380Y-74644285D01*
X118859285Y-74568095D01*
X118821190Y-74530000D01*
X118745000Y-74491904D01*
X118554523Y-74491904D01*
X118440238Y-74530000D01*
X117678333Y-75291904D02*
X118135476Y-75291904D01*
X117906904Y-75291904D02*
X117906904Y-74491904D01*
X117983095Y-74606190D01*
X118059285Y-74682380D01*
X118135476Y-74720476D01*
D12*
X105698742Y-102060314D02*
X105527314Y-102117457D01*
X105241600Y-102117457D01*
X105127314Y-102060314D01*
X105070171Y-102003171D01*
X105013028Y-101888885D01*
X105013028Y-101774600D01*
X105070171Y-101660314D01*
X105127314Y-101603171D01*
X105241600Y-101546028D01*
X105470171Y-101488885D01*
X105584457Y-101431742D01*
X105641600Y-101374600D01*
X105698742Y-101260314D01*
X105698742Y-101146028D01*
X105641600Y-101031742D01*
X105584457Y-100974600D01*
X105470171Y-100917457D01*
X105184457Y-100917457D01*
X105013028Y-100974600D01*
X104498742Y-102117457D02*
X104498742Y-100917457D01*
X104213028Y-100917457D01*
X104041600Y-100974600D01*
X103927314Y-101088885D01*
X103870171Y-101203171D01*
X103813028Y-101431742D01*
X103813028Y-101603171D01*
X103870171Y-101831742D01*
X103927314Y-101946028D01*
X104041600Y-102060314D01*
X104213028Y-102117457D01*
X104498742Y-102117457D01*
X103355885Y-101774600D02*
X102784457Y-101774600D01*
X103470171Y-102117457D02*
X103070171Y-100917457D01*
X102670171Y-102117457D01*
X105670171Y-104625714D02*
X105498742Y-104682857D01*
X105213028Y-104682857D01*
X105098742Y-104625714D01*
X105041600Y-104568571D01*
X104984457Y-104454285D01*
X104984457Y-104340000D01*
X105041600Y-104225714D01*
X105098742Y-104168571D01*
X105213028Y-104111428D01*
X105441600Y-104054285D01*
X105555885Y-103997142D01*
X105613028Y-103940000D01*
X105670171Y-103825714D01*
X105670171Y-103711428D01*
X105613028Y-103597142D01*
X105555885Y-103540000D01*
X105441600Y-103482857D01*
X105155885Y-103482857D01*
X104984457Y-103540000D01*
X103784457Y-104568571D02*
X103841600Y-104625714D01*
X104013028Y-104682857D01*
X104127314Y-104682857D01*
X104298742Y-104625714D01*
X104413028Y-104511428D01*
X104470171Y-104397142D01*
X104527314Y-104168571D01*
X104527314Y-103997142D01*
X104470171Y-103768571D01*
X104413028Y-103654285D01*
X104298742Y-103540000D01*
X104127314Y-103482857D01*
X104013028Y-103482857D01*
X103841600Y-103540000D01*
X103784457Y-103597142D01*
X102698742Y-104682857D02*
X103270171Y-104682857D01*
X103270171Y-103482857D01*
X104419371Y-106022857D02*
X104990800Y-106022857D01*
X105047942Y-106594285D01*
X104990800Y-106537142D01*
X104876514Y-106480000D01*
X104590800Y-106480000D01*
X104476514Y-106537142D01*
X104419371Y-106594285D01*
X104362228Y-106708571D01*
X104362228Y-106994285D01*
X104419371Y-107108571D01*
X104476514Y-107165714D01*
X104590800Y-107222857D01*
X104876514Y-107222857D01*
X104990800Y-107165714D01*
X105047942Y-107108571D01*
X104019371Y-106022857D02*
X103619371Y-107222857D01*
X103219371Y-106022857D01*
X105054285Y-108620000D02*
X105168571Y-108562857D01*
X105340000Y-108562857D01*
X105511428Y-108620000D01*
X105625714Y-108734285D01*
X105682857Y-108848571D01*
X105740000Y-109077142D01*
X105740000Y-109248571D01*
X105682857Y-109477142D01*
X105625714Y-109591428D01*
X105511428Y-109705714D01*
X105340000Y-109762857D01*
X105225714Y-109762857D01*
X105054285Y-109705714D01*
X104997142Y-109648571D01*
X104997142Y-109248571D01*
X105225714Y-109248571D01*
X104482857Y-109762857D02*
X104482857Y-108562857D01*
X103797142Y-109762857D01*
X103797142Y-108562857D01*
X103225714Y-109762857D02*
X103225714Y-108562857D01*
X102940000Y-108562857D01*
X102768571Y-108620000D01*
X102654285Y-108734285D01*
X102597142Y-108848571D01*
X102540000Y-109077142D01*
X102540000Y-109248571D01*
X102597142Y-109477142D01*
X102654285Y-109591428D01*
X102768571Y-109705714D01*
X102940000Y-109762857D01*
X103225714Y-109762857D01*
D13*
X112882142Y-98567761D02*
X112882142Y-96567761D01*
X112110714Y-96758238D02*
X112025000Y-96663000D01*
X111853571Y-96567761D01*
X111425000Y-96567761D01*
X111253571Y-96663000D01*
X111167857Y-96758238D01*
X111082142Y-96948714D01*
X111082142Y-97139190D01*
X111167857Y-97424904D01*
X112196428Y-98567761D01*
X111082142Y-98567761D01*
X109282142Y-98377285D02*
X109367857Y-98472523D01*
X109625000Y-98567761D01*
X109796428Y-98567761D01*
X110053571Y-98472523D01*
X110225000Y-98282047D01*
X110310714Y-98091571D01*
X110396428Y-97710619D01*
X110396428Y-97424904D01*
X110310714Y-97043952D01*
X110225000Y-96853476D01*
X110053571Y-96663000D01*
X109796428Y-96567761D01*
X109625000Y-96567761D01*
X109367857Y-96663000D01*
X109282142Y-96758238D01*
D12*
X145437942Y-137314714D02*
X145509371Y-137529000D01*
X145509371Y-137886142D01*
X145437942Y-138029000D01*
X145366514Y-138100428D01*
X145223657Y-138171857D01*
X145080800Y-138171857D01*
X144937942Y-138100428D01*
X144866514Y-138029000D01*
X144795085Y-137886142D01*
X144723657Y-137600428D01*
X144652228Y-137457571D01*
X144580800Y-137386142D01*
X144437942Y-137314714D01*
X144295085Y-137314714D01*
X144152228Y-137386142D01*
X144080800Y-137457571D01*
X144009371Y-137600428D01*
X144009371Y-137957571D01*
X144080800Y-138171857D01*
X144009371Y-138600428D02*
X144009371Y-139457571D01*
X145509371Y-139029000D02*
X144009371Y-139029000D01*
X145437942Y-139886142D02*
X145509371Y-140100428D01*
X145509371Y-140457571D01*
X145437942Y-140600428D01*
X145366514Y-140671857D01*
X145223657Y-140743285D01*
X145080800Y-140743285D01*
X144937942Y-140671857D01*
X144866514Y-140600428D01*
X144795085Y-140457571D01*
X144723657Y-140171857D01*
X144652228Y-140029000D01*
X144580800Y-139957571D01*
X144437942Y-139886142D01*
X144295085Y-139886142D01*
X144152228Y-139957571D01*
X144080800Y-140029000D01*
X144009371Y-140171857D01*
X144009371Y-140529000D01*
X144080800Y-140743285D01*
X141969371Y-137344885D02*
X143469371Y-137344885D01*
X142755085Y-138059171D02*
X142897942Y-138130600D01*
X142969371Y-138273457D01*
X142755085Y-137344885D02*
X142897942Y-137416314D01*
X142969371Y-137559171D01*
X142969371Y-137844885D01*
X142897942Y-137987742D01*
X142755085Y-138059171D01*
X141969371Y-138059171D01*
X141469371Y-138702028D02*
X141469371Y-139559171D01*
X142969371Y-139130600D02*
X141469371Y-139130600D01*
X141469371Y-139916314D02*
X142969371Y-140916314D01*
X141469371Y-140916314D02*
X142969371Y-139916314D01*
X139429371Y-137292542D02*
X140929371Y-137292542D01*
X140215085Y-138006828D02*
X140357942Y-138078257D01*
X140429371Y-138221114D01*
X140215085Y-137292542D02*
X140357942Y-137363971D01*
X140429371Y-137506828D01*
X140429371Y-137792542D01*
X140357942Y-137935400D01*
X140215085Y-138006828D01*
X139429371Y-138006828D01*
X140429371Y-139721114D02*
X139715085Y-139221114D01*
X140429371Y-138863971D02*
X138929371Y-138863971D01*
X138929371Y-139435400D01*
X139000800Y-139578257D01*
X139072228Y-139649685D01*
X139215085Y-139721114D01*
X139429371Y-139721114D01*
X139572228Y-139649685D01*
X139643657Y-139578257D01*
X139715085Y-139435400D01*
X139715085Y-138863971D01*
X138929371Y-140221114D02*
X140429371Y-141221114D01*
X138929371Y-141221114D02*
X140429371Y-140221114D01*
X136410000Y-138210028D02*
X136338571Y-138067171D01*
X136338571Y-137852885D01*
X136410000Y-137638600D01*
X136552857Y-137495742D01*
X136695714Y-137424314D01*
X136981428Y-137352885D01*
X137195714Y-137352885D01*
X137481428Y-137424314D01*
X137624285Y-137495742D01*
X137767142Y-137638600D01*
X137838571Y-137852885D01*
X137838571Y-137995742D01*
X137767142Y-138210028D01*
X137695714Y-138281457D01*
X137195714Y-138281457D01*
X137195714Y-137995742D01*
X137838571Y-138924314D02*
X136338571Y-138924314D01*
X137838571Y-139781457D01*
X136338571Y-139781457D01*
X137838571Y-140495742D02*
X136338571Y-140495742D01*
X136338571Y-140852885D01*
X136410000Y-141067171D01*
X136552857Y-141210028D01*
X136695714Y-141281457D01*
X136981428Y-141352885D01*
X137195714Y-141352885D01*
X137481428Y-141281457D01*
X137624285Y-141210028D01*
X137767142Y-141067171D01*
X137838571Y-140852885D01*
X137838571Y-140495742D01*
X133798571Y-138116142D02*
X133798571Y-137401857D01*
X134512857Y-137330428D01*
X134441428Y-137401857D01*
X134370000Y-137544714D01*
X134370000Y-137901857D01*
X134441428Y-138044714D01*
X134512857Y-138116142D01*
X134655714Y-138187571D01*
X135012857Y-138187571D01*
X135155714Y-138116142D01*
X135227142Y-138044714D01*
X135298571Y-137901857D01*
X135298571Y-137544714D01*
X135227142Y-137401857D01*
X135155714Y-137330428D01*
X133798571Y-138616142D02*
X135298571Y-139116142D01*
X133798571Y-139616142D01*
X132074457Y-137314571D02*
X132074457Y-137814571D01*
X132860171Y-138028857D02*
X132860171Y-137314571D01*
X131360171Y-137314571D01*
X131360171Y-138028857D01*
X132860171Y-138671714D02*
X131360171Y-138671714D01*
X132860171Y-139528857D01*
X131360171Y-139528857D01*
X144623657Y-130496571D02*
X144623657Y-131710857D01*
X144552228Y-131853714D01*
X144480800Y-131925142D01*
X144337942Y-131996571D01*
X144052228Y-131996571D01*
X143909371Y-131925142D01*
X143837942Y-131853714D01*
X143766514Y-131710857D01*
X143766514Y-130496571D01*
X143123657Y-131568000D02*
X142409371Y-131568000D01*
X143266514Y-131996571D02*
X142766514Y-130496571D01*
X142266514Y-131996571D01*
X140909371Y-131996571D02*
X141409371Y-131282285D01*
X141766514Y-131996571D02*
X141766514Y-130496571D01*
X141195085Y-130496571D01*
X141052228Y-130568000D01*
X140980800Y-130639428D01*
X140909371Y-130782285D01*
X140909371Y-130996571D01*
X140980800Y-131139428D01*
X141052228Y-131210857D01*
X141195085Y-131282285D01*
X141766514Y-131282285D01*
X140480800Y-130496571D02*
X139623657Y-130496571D01*
X140052228Y-131996571D02*
X140052228Y-130496571D01*
X138052228Y-130425142D02*
X139337942Y-132353714D01*
X137552228Y-131996571D02*
X137552228Y-130496571D01*
X137552228Y-131210857D02*
X136695085Y-131210857D01*
X136695085Y-131996571D02*
X136695085Y-130496571D01*
X135123657Y-131853714D02*
X135195085Y-131925142D01*
X135409371Y-131996571D01*
X135552228Y-131996571D01*
X135766514Y-131925142D01*
X135909371Y-131782285D01*
X135980800Y-131639428D01*
X136052228Y-131353714D01*
X136052228Y-131139428D01*
X135980800Y-130853714D01*
X135909371Y-130710857D01*
X135766514Y-130568000D01*
X135552228Y-130496571D01*
X135409371Y-130496571D01*
X135195085Y-130568000D01*
X135123657Y-130639428D01*
X134195085Y-130496571D02*
X134052228Y-130496571D01*
X133909371Y-130568000D01*
X133837942Y-130639428D01*
X133766514Y-130782285D01*
X133695085Y-131068000D01*
X133695085Y-131425142D01*
X133766514Y-131710857D01*
X133837942Y-131853714D01*
X133909371Y-131925142D01*
X134052228Y-131996571D01*
X134195085Y-131996571D01*
X134337942Y-131925142D01*
X134409371Y-131853714D01*
X134480800Y-131710857D01*
X134552228Y-131425142D01*
X134552228Y-131068000D01*
X134480800Y-130782285D01*
X134409371Y-130639428D01*
X134337942Y-130568000D01*
X134195085Y-130496571D01*
X132337942Y-130496571D02*
X133052228Y-130496571D01*
X133123657Y-131210857D01*
X133052228Y-131139428D01*
X132909371Y-131068000D01*
X132552228Y-131068000D01*
X132409371Y-131139428D01*
X132337942Y-131210857D01*
X132266514Y-131353714D01*
X132266514Y-131710857D01*
X132337942Y-131853714D01*
X132409371Y-131925142D01*
X132552228Y-131996571D01*
X132909371Y-131996571D01*
X133052228Y-131925142D01*
X133123657Y-131853714D01*
D13*
X192054285Y-79520476D02*
X192149523Y-79425238D01*
X192244761Y-79139523D01*
X192244761Y-78949047D01*
X192149523Y-78663333D01*
X191959047Y-78472857D01*
X191768571Y-78377619D01*
X191387619Y-78282380D01*
X191101904Y-78282380D01*
X190720952Y-78377619D01*
X190530476Y-78472857D01*
X190340000Y-78663333D01*
X190244761Y-78949047D01*
X190244761Y-79139523D01*
X190340000Y-79425238D01*
X190435238Y-79520476D01*
X191197142Y-80377619D02*
X191197142Y-81044285D01*
X192244761Y-81330000D02*
X192244761Y-80377619D01*
X190244761Y-80377619D01*
X190244761Y-81330000D01*
X192244761Y-83330000D02*
X191292380Y-82663333D01*
X192244761Y-82187142D02*
X190244761Y-82187142D01*
X190244761Y-82949047D01*
X190340000Y-83139523D01*
X190435238Y-83234761D01*
X190625714Y-83330000D01*
X190911428Y-83330000D01*
X191101904Y-83234761D01*
X191197142Y-83139523D01*
X191292380Y-82949047D01*
X191292380Y-82187142D01*
X192244761Y-84187142D02*
X190244761Y-84187142D01*
X192244761Y-85330000D01*
X190244761Y-85330000D01*
X190244761Y-88187142D02*
X190244761Y-88568095D01*
X190340000Y-88758571D01*
X190530476Y-88949047D01*
X190911428Y-89044285D01*
X191578095Y-89044285D01*
X191959047Y-88949047D01*
X192149523Y-88758571D01*
X192244761Y-88568095D01*
X192244761Y-88187142D01*
X192149523Y-87996666D01*
X191959047Y-87806190D01*
X191578095Y-87710952D01*
X190911428Y-87710952D01*
X190530476Y-87806190D01*
X190340000Y-87996666D01*
X190244761Y-88187142D01*
X190911428Y-89901428D02*
X192911428Y-89901428D01*
X191006666Y-89901428D02*
X190911428Y-90091904D01*
X190911428Y-90472857D01*
X191006666Y-90663333D01*
X191101904Y-90758571D01*
X191292380Y-90853809D01*
X191863809Y-90853809D01*
X192054285Y-90758571D01*
X192149523Y-90663333D01*
X192244761Y-90472857D01*
X192244761Y-90091904D01*
X192149523Y-89901428D01*
X192149523Y-92472857D02*
X192244761Y-92282380D01*
X192244761Y-91901428D01*
X192149523Y-91710952D01*
X191959047Y-91615714D01*
X191197142Y-91615714D01*
X191006666Y-91710952D01*
X190911428Y-91901428D01*
X190911428Y-92282380D01*
X191006666Y-92472857D01*
X191197142Y-92568095D01*
X191387619Y-92568095D01*
X191578095Y-91615714D01*
X190911428Y-93425238D02*
X192244761Y-93425238D01*
X191101904Y-93425238D02*
X191006666Y-93520476D01*
X190911428Y-93710952D01*
X190911428Y-93996666D01*
X191006666Y-94187142D01*
X191197142Y-94282380D01*
X192244761Y-94282380D01*
X192244761Y-96758571D02*
X190244761Y-96758571D01*
X191197142Y-96758571D02*
X191197142Y-97901428D01*
X192244761Y-97901428D02*
X190244761Y-97901428D01*
X192244761Y-99710952D02*
X191197142Y-99710952D01*
X191006666Y-99615714D01*
X190911428Y-99425238D01*
X190911428Y-99044285D01*
X191006666Y-98853809D01*
X192149523Y-99710952D02*
X192244761Y-99520476D01*
X192244761Y-99044285D01*
X192149523Y-98853809D01*
X191959047Y-98758571D01*
X191768571Y-98758571D01*
X191578095Y-98853809D01*
X191482857Y-99044285D01*
X191482857Y-99520476D01*
X191387619Y-99710952D01*
X192244761Y-100663333D02*
X190911428Y-100663333D01*
X191292380Y-100663333D02*
X191101904Y-100758571D01*
X191006666Y-100853809D01*
X190911428Y-101044285D01*
X190911428Y-101234761D01*
X192244761Y-102758571D02*
X190244761Y-102758571D01*
X192149523Y-102758571D02*
X192244761Y-102568095D01*
X192244761Y-102187142D01*
X192149523Y-101996666D01*
X192054285Y-101901428D01*
X191863809Y-101806190D01*
X191292380Y-101806190D01*
X191101904Y-101901428D01*
X191006666Y-101996666D01*
X190911428Y-102187142D01*
X190911428Y-102568095D01*
X191006666Y-102758571D01*
X190911428Y-103520476D02*
X192244761Y-103901428D01*
X191292380Y-104282380D01*
X192244761Y-104663333D01*
X190911428Y-105044285D01*
X192244761Y-106663333D02*
X191197142Y-106663333D01*
X191006666Y-106568095D01*
X190911428Y-106377619D01*
X190911428Y-105996666D01*
X191006666Y-105806190D01*
X192149523Y-106663333D02*
X192244761Y-106472857D01*
X192244761Y-105996666D01*
X192149523Y-105806190D01*
X191959047Y-105710952D01*
X191768571Y-105710952D01*
X191578095Y-105806190D01*
X191482857Y-105996666D01*
X191482857Y-106472857D01*
X191387619Y-106663333D01*
X192244761Y-107615714D02*
X190911428Y-107615714D01*
X191292380Y-107615714D02*
X191101904Y-107710952D01*
X191006666Y-107806190D01*
X190911428Y-107996666D01*
X190911428Y-108187142D01*
X192149523Y-109615714D02*
X192244761Y-109425238D01*
X192244761Y-109044285D01*
X192149523Y-108853809D01*
X191959047Y-108758571D01*
X191197142Y-108758571D01*
X191006666Y-108853809D01*
X190911428Y-109044285D01*
X190911428Y-109425238D01*
X191006666Y-109615714D01*
X191197142Y-109710952D01*
X191387619Y-109710952D01*
X191578095Y-108758571D01*
X192244761Y-113044285D02*
X192244761Y-112091904D01*
X190244761Y-112091904D01*
X192244761Y-113710952D02*
X190911428Y-113710952D01*
X190244761Y-113710952D02*
X190340000Y-113615714D01*
X190435238Y-113710952D01*
X190340000Y-113806190D01*
X190244761Y-113710952D01*
X190435238Y-113710952D01*
X192149523Y-115520476D02*
X192244761Y-115330000D01*
X192244761Y-114949047D01*
X192149523Y-114758571D01*
X192054285Y-114663333D01*
X191863809Y-114568095D01*
X191292380Y-114568095D01*
X191101904Y-114663333D01*
X191006666Y-114758571D01*
X190911428Y-114949047D01*
X190911428Y-115330000D01*
X191006666Y-115520476D01*
X192149523Y-117139523D02*
X192244761Y-116949047D01*
X192244761Y-116568095D01*
X192149523Y-116377619D01*
X191959047Y-116282380D01*
X191197142Y-116282380D01*
X191006666Y-116377619D01*
X190911428Y-116568095D01*
X190911428Y-116949047D01*
X191006666Y-117139523D01*
X191197142Y-117234761D01*
X191387619Y-117234761D01*
X191578095Y-116282380D01*
X190911428Y-118091904D02*
X192244761Y-118091904D01*
X191101904Y-118091904D02*
X191006666Y-118187142D01*
X190911428Y-118377619D01*
X190911428Y-118663333D01*
X191006666Y-118853809D01*
X191197142Y-118949047D01*
X192244761Y-118949047D01*
X192149523Y-119806190D02*
X192244761Y-119996666D01*
X192244761Y-120377619D01*
X192149523Y-120568095D01*
X191959047Y-120663333D01*
X191863809Y-120663333D01*
X191673333Y-120568095D01*
X191578095Y-120377619D01*
X191578095Y-120091904D01*
X191482857Y-119901428D01*
X191292380Y-119806190D01*
X191197142Y-119806190D01*
X191006666Y-119901428D01*
X190911428Y-120091904D01*
X190911428Y-120377619D01*
X191006666Y-120568095D01*
X192149523Y-122282380D02*
X192244761Y-122091904D01*
X192244761Y-121710952D01*
X192149523Y-121520476D01*
X191959047Y-121425238D01*
X191197142Y-121425238D01*
X191006666Y-121520476D01*
X190911428Y-121710952D01*
X190911428Y-122091904D01*
X191006666Y-122282380D01*
X191197142Y-122377619D01*
X191387619Y-122377619D01*
X191578095Y-121425238D01*
X193644761Y-75806190D02*
X195644761Y-76472857D01*
X193644761Y-77139523D01*
X195549523Y-78568095D02*
X195644761Y-78377619D01*
X195644761Y-77996666D01*
X195549523Y-77806190D01*
X195359047Y-77710952D01*
X194597142Y-77710952D01*
X194406666Y-77806190D01*
X194311428Y-77996666D01*
X194311428Y-78377619D01*
X194406666Y-78568095D01*
X194597142Y-78663333D01*
X194787619Y-78663333D01*
X194978095Y-77710952D01*
X195644761Y-79520476D02*
X194311428Y-79520476D01*
X194692380Y-79520476D02*
X194501904Y-79615714D01*
X194406666Y-79710952D01*
X194311428Y-79901428D01*
X194311428Y-80091904D01*
X195549523Y-80663333D02*
X195644761Y-80853809D01*
X195644761Y-81234761D01*
X195549523Y-81425238D01*
X195359047Y-81520476D01*
X195263809Y-81520476D01*
X195073333Y-81425238D01*
X194978095Y-81234761D01*
X194978095Y-80949047D01*
X194882857Y-80758571D01*
X194692380Y-80663333D01*
X194597142Y-80663333D01*
X194406666Y-80758571D01*
X194311428Y-80949047D01*
X194311428Y-81234761D01*
X194406666Y-81425238D01*
X195644761Y-82377619D02*
X194311428Y-82377619D01*
X193644761Y-82377619D02*
X193740000Y-82282380D01*
X193835238Y-82377619D01*
X193740000Y-82472857D01*
X193644761Y-82377619D01*
X193835238Y-82377619D01*
X195644761Y-83615714D02*
X195549523Y-83425238D01*
X195454285Y-83330000D01*
X195263809Y-83234761D01*
X194692380Y-83234761D01*
X194501904Y-83330000D01*
X194406666Y-83425238D01*
X194311428Y-83615714D01*
X194311428Y-83901428D01*
X194406666Y-84091904D01*
X194501904Y-84187142D01*
X194692380Y-84282380D01*
X195263809Y-84282380D01*
X195454285Y-84187142D01*
X195549523Y-84091904D01*
X195644761Y-83901428D01*
X195644761Y-83615714D01*
X194311428Y-85139523D02*
X195644761Y-85139523D01*
X194501904Y-85139523D02*
X194406666Y-85234761D01*
X194311428Y-85425238D01*
X194311428Y-85710952D01*
X194406666Y-85901428D01*
X194597142Y-85996666D01*
X195644761Y-85996666D01*
X193835238Y-88377619D02*
X193740000Y-88472857D01*
X193644761Y-88663333D01*
X193644761Y-89139523D01*
X193740000Y-89330000D01*
X193835238Y-89425238D01*
X194025714Y-89520476D01*
X194216190Y-89520476D01*
X194501904Y-89425238D01*
X195644761Y-88282380D01*
X195644761Y-89520476D01*
X194882857Y-91901428D02*
X194882857Y-93425238D01*
X195549523Y-95806190D02*
X195644761Y-96091904D01*
X195644761Y-96568095D01*
X195549523Y-96758571D01*
X195454285Y-96853809D01*
X195263809Y-96949047D01*
X195073333Y-96949047D01*
X194882857Y-96853809D01*
X194787619Y-96758571D01*
X194692380Y-96568095D01*
X194597142Y-96187142D01*
X194501904Y-95996666D01*
X194406666Y-95901428D01*
X194216190Y-95806190D01*
X194025714Y-95806190D01*
X193835238Y-95901428D01*
X193740000Y-95996666D01*
X193644761Y-96187142D01*
X193644761Y-96663333D01*
X193740000Y-96949047D01*
X194311428Y-97520476D02*
X194311428Y-98282380D01*
X193644761Y-97806190D02*
X195359047Y-97806190D01*
X195549523Y-97901428D01*
X195644761Y-98091904D01*
X195644761Y-98282380D01*
X195644761Y-98949047D02*
X194311428Y-98949047D01*
X194692380Y-98949047D02*
X194501904Y-99044285D01*
X194406666Y-99139523D01*
X194311428Y-99330000D01*
X194311428Y-99520476D01*
X195644761Y-100472857D02*
X195549523Y-100282380D01*
X195454285Y-100187142D01*
X195263809Y-100091904D01*
X194692380Y-100091904D01*
X194501904Y-100187142D01*
X194406666Y-100282380D01*
X194311428Y-100472857D01*
X194311428Y-100758571D01*
X194406666Y-100949047D01*
X194501904Y-101044285D01*
X194692380Y-101139523D01*
X195263809Y-101139523D01*
X195454285Y-101044285D01*
X195549523Y-100949047D01*
X195644761Y-100758571D01*
X195644761Y-100472857D01*
X194311428Y-101996666D02*
X195644761Y-101996666D01*
X194501904Y-101996666D02*
X194406666Y-102091904D01*
X194311428Y-102282380D01*
X194311428Y-102568095D01*
X194406666Y-102758571D01*
X194597142Y-102853809D01*
X195644761Y-102853809D01*
X194311428Y-104663333D02*
X195930476Y-104663333D01*
X196120952Y-104568095D01*
X196216190Y-104472857D01*
X196311428Y-104282380D01*
X196311428Y-103996666D01*
X196216190Y-103806190D01*
X195549523Y-104663333D02*
X195644761Y-104472857D01*
X195644761Y-104091904D01*
X195549523Y-103901428D01*
X195454285Y-103806190D01*
X195263809Y-103710952D01*
X194692380Y-103710952D01*
X194501904Y-103806190D01*
X194406666Y-103901428D01*
X194311428Y-104091904D01*
X194311428Y-104472857D01*
X194406666Y-104663333D01*
X195644761Y-105901428D02*
X195549523Y-105710952D01*
X195359047Y-105615714D01*
X193644761Y-105615714D01*
X194311428Y-106472857D02*
X195644761Y-106949047D01*
X194311428Y-107425238D02*
X195644761Y-106949047D01*
X196120952Y-106758571D01*
X196216190Y-106663333D01*
X196311428Y-106472857D01*
X195644761Y-110853809D02*
X194692380Y-110187142D01*
X195644761Y-109710952D02*
X193644761Y-109710952D01*
X193644761Y-110472857D01*
X193740000Y-110663333D01*
X193835238Y-110758571D01*
X194025714Y-110853809D01*
X194311428Y-110853809D01*
X194501904Y-110758571D01*
X194597142Y-110663333D01*
X194692380Y-110472857D01*
X194692380Y-109710952D01*
X195549523Y-112472857D02*
X195644761Y-112282380D01*
X195644761Y-111901428D01*
X195549523Y-111710952D01*
X195359047Y-111615714D01*
X194597142Y-111615714D01*
X194406666Y-111710952D01*
X194311428Y-111901428D01*
X194311428Y-112282380D01*
X194406666Y-112472857D01*
X194597142Y-112568095D01*
X194787619Y-112568095D01*
X194978095Y-111615714D01*
X195549523Y-114282380D02*
X195644761Y-114091904D01*
X195644761Y-113710952D01*
X195549523Y-113520476D01*
X195454285Y-113425238D01*
X195263809Y-113330000D01*
X194692380Y-113330000D01*
X194501904Y-113425238D01*
X194406666Y-113520476D01*
X194311428Y-113710952D01*
X194311428Y-114091904D01*
X194406666Y-114282380D01*
X195644761Y-115139523D02*
X194311428Y-115139523D01*
X193644761Y-115139523D02*
X193740000Y-115044285D01*
X193835238Y-115139523D01*
X193740000Y-115234761D01*
X193644761Y-115139523D01*
X193835238Y-115139523D01*
X194311428Y-116091904D02*
X196311428Y-116091904D01*
X194406666Y-116091904D02*
X194311428Y-116282380D01*
X194311428Y-116663333D01*
X194406666Y-116853809D01*
X194501904Y-116949047D01*
X194692380Y-117044285D01*
X195263809Y-117044285D01*
X195454285Y-116949047D01*
X195549523Y-116853809D01*
X195644761Y-116663333D01*
X195644761Y-116282380D01*
X195549523Y-116091904D01*
X195644761Y-117901428D02*
X194311428Y-117901428D01*
X194692380Y-117901428D02*
X194501904Y-117996666D01*
X194406666Y-118091904D01*
X194311428Y-118282380D01*
X194311428Y-118472857D01*
X195644761Y-119425238D02*
X195549523Y-119234761D01*
X195454285Y-119139523D01*
X195263809Y-119044285D01*
X194692380Y-119044285D01*
X194501904Y-119139523D01*
X194406666Y-119234761D01*
X194311428Y-119425238D01*
X194311428Y-119710952D01*
X194406666Y-119901428D01*
X194501904Y-119996666D01*
X194692380Y-120091904D01*
X195263809Y-120091904D01*
X195454285Y-119996666D01*
X195549523Y-119901428D01*
X195644761Y-119710952D01*
X195644761Y-119425238D01*
X195549523Y-121806190D02*
X195644761Y-121615714D01*
X195644761Y-121234761D01*
X195549523Y-121044285D01*
X195454285Y-120949047D01*
X195263809Y-120853809D01*
X194692380Y-120853809D01*
X194501904Y-120949047D01*
X194406666Y-121044285D01*
X194311428Y-121234761D01*
X194311428Y-121615714D01*
X194406666Y-121806190D01*
X195644761Y-123520476D02*
X194597142Y-123520476D01*
X194406666Y-123425238D01*
X194311428Y-123234761D01*
X194311428Y-122853809D01*
X194406666Y-122663333D01*
X195549523Y-123520476D02*
X195644761Y-123330000D01*
X195644761Y-122853809D01*
X195549523Y-122663333D01*
X195359047Y-122568095D01*
X195168571Y-122568095D01*
X194978095Y-122663333D01*
X194882857Y-122853809D01*
X194882857Y-123330000D01*
X194787619Y-123520476D01*
X195644761Y-124758571D02*
X195549523Y-124568095D01*
X195359047Y-124472857D01*
X193644761Y-124472857D01*
X175065714Y-52873161D02*
X175065714Y-50873161D01*
X174208571Y-52873161D02*
X174208571Y-51825542D01*
X174303809Y-51635066D01*
X174494285Y-51539828D01*
X174780000Y-51539828D01*
X174970476Y-51635066D01*
X175065714Y-51730304D01*
X173541904Y-51539828D02*
X172780000Y-51539828D01*
X173256190Y-50873161D02*
X173256190Y-52587447D01*
X173160952Y-52777923D01*
X172970476Y-52873161D01*
X172780000Y-52873161D01*
X172399047Y-51539828D02*
X171637142Y-51539828D01*
X172113333Y-50873161D02*
X172113333Y-52587447D01*
X172018095Y-52777923D01*
X171827619Y-52873161D01*
X171637142Y-52873161D01*
X170970476Y-51539828D02*
X170970476Y-53539828D01*
X170970476Y-51635066D02*
X170780000Y-51539828D01*
X170399047Y-51539828D01*
X170208571Y-51635066D01*
X170113333Y-51730304D01*
X170018095Y-51920780D01*
X170018095Y-52492209D01*
X170113333Y-52682685D01*
X170208571Y-52777923D01*
X170399047Y-52873161D01*
X170780000Y-52873161D01*
X170970476Y-52777923D01*
X169256190Y-52777923D02*
X169065714Y-52873161D01*
X168684761Y-52873161D01*
X168494285Y-52777923D01*
X168399047Y-52587447D01*
X168399047Y-52492209D01*
X168494285Y-52301733D01*
X168684761Y-52206495D01*
X168970476Y-52206495D01*
X169160952Y-52111257D01*
X169256190Y-51920780D01*
X169256190Y-51825542D01*
X169160952Y-51635066D01*
X168970476Y-51539828D01*
X168684761Y-51539828D01*
X168494285Y-51635066D01*
X167541904Y-52682685D02*
X167446666Y-52777923D01*
X167541904Y-52873161D01*
X167637142Y-52777923D01*
X167541904Y-52682685D01*
X167541904Y-52873161D01*
X167541904Y-51635066D02*
X167446666Y-51730304D01*
X167541904Y-51825542D01*
X167637142Y-51730304D01*
X167541904Y-51635066D01*
X167541904Y-51825542D01*
X165160952Y-50777923D02*
X166875238Y-53349352D01*
X163065714Y-50777923D02*
X164780000Y-53349352D01*
X161541904Y-51539828D02*
X161541904Y-53158876D01*
X161637142Y-53349352D01*
X161732380Y-53444590D01*
X161922857Y-53539828D01*
X162208571Y-53539828D01*
X162399047Y-53444590D01*
X161541904Y-52777923D02*
X161732380Y-52873161D01*
X162113333Y-52873161D01*
X162303809Y-52777923D01*
X162399047Y-52682685D01*
X162494285Y-52492209D01*
X162494285Y-51920780D01*
X162399047Y-51730304D01*
X162303809Y-51635066D01*
X162113333Y-51539828D01*
X161732380Y-51539828D01*
X161541904Y-51635066D01*
X160589523Y-52873161D02*
X160589523Y-51539828D01*
X160589523Y-50873161D02*
X160684761Y-50968400D01*
X160589523Y-51063638D01*
X160494285Y-50968400D01*
X160589523Y-50873161D01*
X160589523Y-51063638D01*
X159922857Y-51539828D02*
X159160952Y-51539828D01*
X159637142Y-50873161D02*
X159637142Y-52587447D01*
X159541904Y-52777923D01*
X159351428Y-52873161D01*
X159160952Y-52873161D01*
X158494285Y-52873161D02*
X158494285Y-50873161D01*
X157637142Y-52873161D02*
X157637142Y-51825542D01*
X157732380Y-51635066D01*
X157922857Y-51539828D01*
X158208571Y-51539828D01*
X158399047Y-51635066D01*
X158494285Y-51730304D01*
X155827619Y-51539828D02*
X155827619Y-52873161D01*
X156684761Y-51539828D02*
X156684761Y-52587447D01*
X156589523Y-52777923D01*
X156399047Y-52873161D01*
X156113333Y-52873161D01*
X155922857Y-52777923D01*
X155827619Y-52682685D01*
X154875238Y-52873161D02*
X154875238Y-50873161D01*
X154875238Y-51635066D02*
X154684761Y-51539828D01*
X154303809Y-51539828D01*
X154113333Y-51635066D01*
X154018095Y-51730304D01*
X153922857Y-51920780D01*
X153922857Y-52492209D01*
X154018095Y-52682685D01*
X154113333Y-52777923D01*
X154303809Y-52873161D01*
X154684761Y-52873161D01*
X154875238Y-52777923D01*
X153065714Y-52682685D02*
X152970476Y-52777923D01*
X153065714Y-52873161D01*
X153160952Y-52777923D01*
X153065714Y-52682685D01*
X153065714Y-52873161D01*
X151256190Y-52777923D02*
X151446666Y-52873161D01*
X151827619Y-52873161D01*
X152018095Y-52777923D01*
X152113333Y-52682685D01*
X152208571Y-52492209D01*
X152208571Y-51920780D01*
X152113333Y-51730304D01*
X152018095Y-51635066D01*
X151827619Y-51539828D01*
X151446666Y-51539828D01*
X151256190Y-51635066D01*
X150113333Y-52873161D02*
X150303809Y-52777923D01*
X150399047Y-52682685D01*
X150494285Y-52492209D01*
X150494285Y-51920780D01*
X150399047Y-51730304D01*
X150303809Y-51635066D01*
X150113333Y-51539828D01*
X149827619Y-51539828D01*
X149637142Y-51635066D01*
X149541904Y-51730304D01*
X149446666Y-51920780D01*
X149446666Y-52492209D01*
X149541904Y-52682685D01*
X149637142Y-52777923D01*
X149827619Y-52873161D01*
X150113333Y-52873161D01*
X148589523Y-52873161D02*
X148589523Y-51539828D01*
X148589523Y-51730304D02*
X148494285Y-51635066D01*
X148303809Y-51539828D01*
X148018095Y-51539828D01*
X147827619Y-51635066D01*
X147732380Y-51825542D01*
X147732380Y-52873161D01*
X147732380Y-51825542D02*
X147637142Y-51635066D01*
X147446666Y-51539828D01*
X147160952Y-51539828D01*
X146970476Y-51635066D01*
X146875238Y-51825542D01*
X146875238Y-52873161D01*
X144494285Y-50777923D02*
X146208571Y-53349352D01*
X143827619Y-52873161D02*
X143827619Y-50873161D01*
X143351428Y-50873161D01*
X143065714Y-50968400D01*
X142875238Y-51158876D01*
X142780000Y-51349352D01*
X142684761Y-51730304D01*
X142684761Y-52016019D01*
X142780000Y-52396971D01*
X142875238Y-52587447D01*
X143065714Y-52777923D01*
X143351428Y-52873161D01*
X143827619Y-52873161D01*
X141160952Y-51825542D02*
X140875238Y-51920780D01*
X140780000Y-52016019D01*
X140684761Y-52206495D01*
X140684761Y-52492209D01*
X140780000Y-52682685D01*
X140875238Y-52777923D01*
X141065714Y-52873161D01*
X141827619Y-52873161D01*
X141827619Y-50873161D01*
X141160952Y-50873161D01*
X140970476Y-50968400D01*
X140875238Y-51063638D01*
X140780000Y-51254114D01*
X140780000Y-51444590D01*
X140875238Y-51635066D01*
X140970476Y-51730304D01*
X141160952Y-51825542D01*
X141827619Y-51825542D01*
X140018095Y-50873161D02*
X138780000Y-50873161D01*
X139446666Y-51635066D01*
X139160952Y-51635066D01*
X138970476Y-51730304D01*
X138875238Y-51825542D01*
X138780000Y-52016019D01*
X138780000Y-52492209D01*
X138875238Y-52682685D01*
X138970476Y-52777923D01*
X139160952Y-52873161D01*
X139732380Y-52873161D01*
X139922857Y-52777923D01*
X140018095Y-52682685D01*
X138113333Y-50873161D02*
X136780000Y-50873161D01*
X137637142Y-52873161D01*
X135065714Y-50873161D02*
X136018095Y-50873161D01*
X136113333Y-51825542D01*
X136018095Y-51730304D01*
X135827619Y-51635066D01*
X135351428Y-51635066D01*
X135160952Y-51730304D01*
X135065714Y-51825542D01*
X134970476Y-52016019D01*
X134970476Y-52492209D01*
X135065714Y-52682685D01*
X135160952Y-52777923D01*
X135351428Y-52873161D01*
X135827619Y-52873161D01*
X136018095Y-52777923D01*
X136113333Y-52682685D01*
X134208571Y-51063638D02*
X134113333Y-50968400D01*
X133922857Y-50873161D01*
X133446666Y-50873161D01*
X133256190Y-50968400D01*
X133160952Y-51063638D01*
X133065714Y-51254114D01*
X133065714Y-51444590D01*
X133160952Y-51730304D01*
X134303809Y-52873161D01*
X133065714Y-52873161D01*
X132399047Y-50873161D02*
X131160952Y-50873161D01*
X131827619Y-51635066D01*
X131541904Y-51635066D01*
X131351428Y-51730304D01*
X131256190Y-51825542D01*
X131160952Y-52016019D01*
X131160952Y-52492209D01*
X131256190Y-52682685D01*
X131351428Y-52777923D01*
X131541904Y-52873161D01*
X132113333Y-52873161D01*
X132303809Y-52777923D01*
X132399047Y-52682685D01*
X130494285Y-50873161D02*
X129160952Y-50873161D01*
X130018095Y-52873161D01*
X126970476Y-50777923D02*
X128684761Y-53349352D01*
X126399047Y-52777923D02*
X126208571Y-52873161D01*
X125827619Y-52873161D01*
X125637142Y-52777923D01*
X125541904Y-52587447D01*
X125541904Y-52492209D01*
X125637142Y-52301733D01*
X125827619Y-52206495D01*
X126113333Y-52206495D01*
X126303809Y-52111257D01*
X126399047Y-51920780D01*
X126399047Y-51825542D01*
X126303809Y-51635066D01*
X126113333Y-51539828D01*
X125827619Y-51539828D01*
X125637142Y-51635066D01*
X124684761Y-52873161D02*
X124684761Y-51539828D01*
X124684761Y-51730304D02*
X124589523Y-51635066D01*
X124399047Y-51539828D01*
X124113333Y-51539828D01*
X123922857Y-51635066D01*
X123827619Y-51825542D01*
X123827619Y-52873161D01*
X123827619Y-51825542D02*
X123732380Y-51635066D01*
X123541904Y-51539828D01*
X123256190Y-51539828D01*
X123065714Y-51635066D01*
X122970476Y-51825542D01*
X122970476Y-52873161D01*
X121160952Y-52873161D02*
X121160952Y-51825542D01*
X121256190Y-51635066D01*
X121446666Y-51539828D01*
X121827619Y-51539828D01*
X122018095Y-51635066D01*
X121160952Y-52777923D02*
X121351428Y-52873161D01*
X121827619Y-52873161D01*
X122018095Y-52777923D01*
X122113333Y-52587447D01*
X122113333Y-52396971D01*
X122018095Y-52206495D01*
X121827619Y-52111257D01*
X121351428Y-52111257D01*
X121160952Y-52016019D01*
X120208571Y-52873161D02*
X120208571Y-51539828D01*
X120208571Y-51920780D02*
X120113333Y-51730304D01*
X120018095Y-51635066D01*
X119827619Y-51539828D01*
X119637142Y-51539828D01*
X119256190Y-51539828D02*
X118494285Y-51539828D01*
X118970476Y-50873161D02*
X118970476Y-52587447D01*
X118875238Y-52777923D01*
X118684761Y-52873161D01*
X118494285Y-52873161D01*
X117827619Y-52873161D02*
X117827619Y-51539828D01*
X117827619Y-50873161D02*
X117922857Y-50968400D01*
X117827619Y-51063638D01*
X117732380Y-50968400D01*
X117827619Y-50873161D01*
X117827619Y-51063638D01*
X116113333Y-52777923D02*
X116303809Y-52873161D01*
X116684761Y-52873161D01*
X116875238Y-52777923D01*
X116970476Y-52587447D01*
X116970476Y-51825542D01*
X116875238Y-51635066D01*
X116684761Y-51539828D01*
X116303809Y-51539828D01*
X116113333Y-51635066D01*
X116018095Y-51825542D01*
X116018095Y-52016019D01*
X116970476Y-52206495D01*
X115256190Y-52777923D02*
X115065714Y-52873161D01*
X114684761Y-52873161D01*
X114494285Y-52777923D01*
X114399047Y-52587447D01*
X114399047Y-52492209D01*
X114494285Y-52301733D01*
X114684761Y-52206495D01*
X114970476Y-52206495D01*
X115160952Y-52111257D01*
X115256190Y-51920780D01*
X115256190Y-51825542D01*
X115160952Y-51635066D01*
X114970476Y-51539828D01*
X114684761Y-51539828D01*
X114494285Y-51635066D01*
D14*
G36*
X147862807Y-76145314D02*
G01*
X147336166Y-76148197D01*
X146955029Y-76156004D01*
X146694831Y-76171193D01*
X146531006Y-76196220D01*
X146438989Y-76233542D01*
X146394215Y-76285615D01*
X146372116Y-76354896D01*
X146369969Y-76363864D01*
X146336402Y-76525697D01*
X146274270Y-76845003D01*
X146190036Y-77287795D01*
X146090163Y-77820089D01*
X145981115Y-78407899D01*
X145977306Y-78428543D01*
X145868075Y-79004592D01*
X145765877Y-79513550D01*
X145677308Y-79924890D01*
X145608962Y-80208089D01*
X145567435Y-80332620D01*
X145565454Y-80334826D01*
X145443123Y-80395638D01*
X145190901Y-80496976D01*
X144863259Y-80616963D01*
X144861435Y-80617603D01*
X144448744Y-80772727D01*
X143962201Y-80970333D01*
X143503582Y-81169016D01*
X143481877Y-81178840D01*
X142734886Y-81517871D01*
X141080791Y-80388310D01*
X140573367Y-80043960D01*
X140113717Y-79736110D01*
X139728470Y-79482267D01*
X139444257Y-79299937D01*
X139287706Y-79206629D01*
X139272840Y-79199709D01*
X139159072Y-79230519D01*
X138946582Y-79379173D01*
X138627083Y-79652682D01*
X138192288Y-80058056D01*
X137748425Y-80489335D01*
X137320539Y-80914326D01*
X136937583Y-81302140D01*
X136622611Y-81628828D01*
X136398677Y-81870442D01*
X136288834Y-82003030D01*
X136284748Y-82009856D01*
X136272605Y-82100842D01*
X136318352Y-82249432D01*
X136433290Y-82475692D01*
X136628722Y-82799690D01*
X136915952Y-83241491D01*
X137298855Y-83810239D01*
X137638674Y-84310837D01*
X137942444Y-84759819D01*
X138192611Y-85131119D01*
X138371622Y-85398669D01*
X138461921Y-85536404D01*
X138467605Y-85545755D01*
X138456580Y-85677722D01*
X138373010Y-85934216D01*
X138233526Y-86266759D01*
X138183813Y-86372958D01*
X137966899Y-86846073D01*
X137735480Y-87382898D01*
X137547490Y-87847389D01*
X137412031Y-88192133D01*
X137304434Y-88454125D01*
X137242259Y-88591053D01*
X137234529Y-88601604D01*
X137120178Y-88619080D01*
X136850624Y-88666966D01*
X136461708Y-88738443D01*
X135989271Y-88826697D01*
X135469153Y-88924909D01*
X134937194Y-89026264D01*
X134429235Y-89123946D01*
X133981118Y-89211137D01*
X133628681Y-89281022D01*
X133407766Y-89326783D01*
X133353581Y-89339722D01*
X133297609Y-89371654D01*
X133255358Y-89443774D01*
X133224927Y-89580424D01*
X133204415Y-89805949D01*
X133191921Y-90144692D01*
X133185545Y-90620996D01*
X133183386Y-91259204D01*
X133183274Y-91520802D01*
X133183274Y-93648341D01*
X133694194Y-93749185D01*
X133978446Y-93803866D01*
X134402621Y-93883684D01*
X134915135Y-93979009D01*
X135464405Y-94080211D01*
X135616225Y-94108008D01*
X136123079Y-94206554D01*
X136564627Y-94303460D01*
X136903807Y-94389749D01*
X137103561Y-94456445D01*
X137136835Y-94476324D01*
X137218543Y-94617101D01*
X137335694Y-94889885D01*
X137465610Y-95240930D01*
X137491379Y-95316546D01*
X137661653Y-95785379D01*
X137873008Y-96314368D01*
X138079840Y-96789402D01*
X138080860Y-96791608D01*
X138425296Y-97536785D01*
X137292473Y-99203106D01*
X136159651Y-100869426D01*
X137614116Y-102326319D01*
X138054024Y-102759923D01*
X138455256Y-103142148D01*
X138795276Y-103452591D01*
X139051550Y-103670847D01*
X139201542Y-103776509D01*
X139223059Y-103783213D01*
X139349386Y-103730418D01*
X139607161Y-103583640D01*
X139968223Y-103360287D01*
X140404413Y-103077768D01*
X140876013Y-102761374D01*
X141354649Y-102438647D01*
X141781402Y-102157824D01*
X142129170Y-101936181D01*
X142370853Y-101790995D01*
X142478994Y-101739535D01*
X142610933Y-101783079D01*
X142861124Y-101897821D01*
X143177961Y-102059920D01*
X143211547Y-102077937D01*
X143638216Y-102291920D01*
X143930793Y-102396863D01*
X144112760Y-102397979D01*
X144207602Y-102300479D01*
X144208154Y-102299113D01*
X144255561Y-102183647D01*
X144368623Y-101909549D01*
X144538573Y-101498033D01*
X144756645Y-100970315D01*
X145014073Y-100347608D01*
X145302090Y-99651127D01*
X145581018Y-98976807D01*
X145887561Y-98232652D01*
X146169019Y-97543293D01*
X146416957Y-96929861D01*
X146622939Y-96413489D01*
X146778529Y-96015308D01*
X146875293Y-95756450D01*
X146905113Y-95659841D01*
X146830332Y-95549020D01*
X146634725Y-95372396D01*
X146373891Y-95177667D01*
X145631075Y-94561826D01*
X145050461Y-93855928D01*
X144639008Y-93074841D01*
X144403674Y-92233434D01*
X144351418Y-91346577D01*
X144389400Y-90937236D01*
X144596354Y-90087965D01*
X144952775Y-89337991D01*
X145436557Y-88694711D01*
X146025594Y-88165522D01*
X146697779Y-87757820D01*
X147431005Y-87479003D01*
X148203167Y-87336467D01*
X148992158Y-87337610D01*
X149775871Y-87489828D01*
X150532201Y-87800518D01*
X151239040Y-88277077D01*
X151534066Y-88546598D01*
X152099889Y-89238678D01*
X152493857Y-89994971D01*
X152718593Y-90793430D01*
X152776719Y-91612010D01*
X152670859Y-92428664D01*
X152403635Y-93221346D01*
X151977670Y-93968010D01*
X151395588Y-94646609D01*
X150745148Y-95177667D01*
X150474216Y-95380662D01*
X150282822Y-95555369D01*
X150213926Y-95660006D01*
X150250000Y-95774116D01*
X150352596Y-96046715D01*
X150513273Y-96456675D01*
X150723592Y-96982864D01*
X150975112Y-97604151D01*
X151259394Y-98299406D01*
X151538791Y-98976972D01*
X151847038Y-99721763D01*
X152132556Y-100411934D01*
X152386579Y-101026274D01*
X152600343Y-101543570D01*
X152765080Y-101942613D01*
X152872027Y-102202189D01*
X152911655Y-102299113D01*
X153005273Y-102397578D01*
X153186355Y-102397290D01*
X153478205Y-102293073D01*
X153904124Y-102079751D01*
X153907492Y-102077937D01*
X154228180Y-101912391D01*
X154487416Y-101791803D01*
X154633595Y-101740012D01*
X154640046Y-101739535D01*
X154750089Y-101792068D01*
X154993034Y-101938152D01*
X155341778Y-102160510D01*
X155769221Y-102441866D01*
X156243026Y-102761374D01*
X156725410Y-103084878D01*
X157160172Y-103366219D01*
X157519153Y-103587989D01*
X157774192Y-103732780D01*
X157895980Y-103783213D01*
X158008126Y-103716926D01*
X158233601Y-103531665D01*
X158549875Y-103247833D01*
X158934419Y-102885830D01*
X159364703Y-102466058D01*
X159505424Y-102325818D01*
X160960388Y-100868424D01*
X159852930Y-99243120D01*
X159516366Y-98744003D01*
X159220979Y-98296052D01*
X158983340Y-97925217D01*
X158820021Y-97657450D01*
X158747592Y-97518700D01*
X158745471Y-97508829D01*
X158783655Y-97378048D01*
X158886356Y-97114970D01*
X159035801Y-96763682D01*
X159140697Y-96528501D01*
X159336828Y-96078241D01*
X159521534Y-95623349D01*
X159664733Y-95238997D01*
X159703632Y-95121910D01*
X159814149Y-94809232D01*
X159922183Y-94567635D01*
X159981522Y-94476324D01*
X160112472Y-94420441D01*
X160398273Y-94341222D01*
X160801843Y-94247643D01*
X161286097Y-94148685D01*
X161502815Y-94108008D01*
X162053142Y-94006882D01*
X162581012Y-93908963D01*
X163034839Y-93823882D01*
X163363042Y-93761269D01*
X163424845Y-93749185D01*
X163935765Y-93648341D01*
X163935765Y-91520802D01*
X163934617Y-90821219D01*
X163929907Y-90291920D01*
X163919735Y-89908564D01*
X163902198Y-89646807D01*
X163875396Y-89482306D01*
X163837429Y-89390716D01*
X163786396Y-89347696D01*
X163765458Y-89339722D01*
X163639172Y-89311431D01*
X163360171Y-89254987D01*
X162964298Y-89177205D01*
X162487391Y-89084903D01*
X161965293Y-88984896D01*
X161433843Y-88884002D01*
X160928882Y-88789036D01*
X160486250Y-88706815D01*
X160141788Y-88644157D01*
X159931337Y-88607876D01*
X159884510Y-88601604D01*
X159842088Y-88517665D01*
X159748185Y-88294059D01*
X159620359Y-87973095D01*
X159571549Y-87847389D01*
X159374681Y-87361725D01*
X159142853Y-86825155D01*
X158935226Y-86372958D01*
X158782451Y-86027190D01*
X158680809Y-85743073D01*
X158646879Y-85569075D01*
X158652288Y-85545755D01*
X158723998Y-85435659D01*
X158887737Y-85190797D01*
X159125931Y-84837244D01*
X159421004Y-84401073D01*
X159755382Y-83908360D01*
X159821501Y-83811102D01*
X160209480Y-83234865D01*
X160494678Y-82796073D01*
X160688466Y-82474523D01*
X160802213Y-82250012D01*
X160847289Y-82102339D01*
X160835065Y-82011299D01*
X160834753Y-82010719D01*
X160738543Y-81891140D01*
X160525743Y-81659958D01*
X160219417Y-81341138D01*
X159842631Y-80958649D01*
X159418451Y-80536456D01*
X159370614Y-80489335D01*
X158836044Y-79971664D01*
X158423504Y-79591553D01*
X158124704Y-79341994D01*
X157931360Y-79215974D01*
X157846199Y-79199709D01*
X157721913Y-79270664D01*
X157463995Y-79434565D01*
X157099076Y-79673903D01*
X156653786Y-79971171D01*
X156154753Y-80308863D01*
X156038248Y-80388310D01*
X154384153Y-81517871D01*
X153637162Y-81178840D01*
X153182888Y-80981262D01*
X152695265Y-80782554D01*
X152276071Y-80624122D01*
X152257604Y-80617603D01*
X151929710Y-80497577D01*
X151676950Y-80396084D01*
X151553794Y-80335002D01*
X151553585Y-80334826D01*
X151514507Y-80224416D01*
X151448078Y-79952878D01*
X151360895Y-79550737D01*
X151259552Y-79048518D01*
X151150643Y-78476746D01*
X151141733Y-78428543D01*
X151032485Y-77839438D01*
X150932192Y-77304688D01*
X150847317Y-76858279D01*
X150784324Y-76534197D01*
X150749675Y-76366426D01*
X150749070Y-76363864D01*
X150727984Y-76292496D01*
X150686983Y-76238612D01*
X150601499Y-76199755D01*
X150446969Y-76173469D01*
X150198825Y-76157298D01*
X149832502Y-76148783D01*
X149323436Y-76145469D01*
X148647059Y-76144899D01*
X148559520Y-76144899D01*
X147862807Y-76145314D01*
G37*
X147862807Y-76145314D02*
X147336166Y-76148197D01*
X146955029Y-76156004D01*
X146694831Y-76171193D01*
X146531006Y-76196220D01*
X146438989Y-76233542D01*
X146394215Y-76285615D01*
X146372116Y-76354896D01*
X146369969Y-76363864D01*
X146336402Y-76525697D01*
X146274270Y-76845003D01*
X146190036Y-77287795D01*
X146090163Y-77820089D01*
X145981115Y-78407899D01*
X145977306Y-78428543D01*
X145868075Y-79004592D01*
X145765877Y-79513550D01*
X145677308Y-79924890D01*
X145608962Y-80208089D01*
X145567435Y-80332620D01*
X145565454Y-80334826D01*
X145443123Y-80395638D01*
X145190901Y-80496976D01*
X144863259Y-80616963D01*
X144861435Y-80617603D01*
X144448744Y-80772727D01*
X143962201Y-80970333D01*
X143503582Y-81169016D01*
X143481877Y-81178840D01*
X142734886Y-81517871D01*
X141080791Y-80388310D01*
X140573367Y-80043960D01*
X140113717Y-79736110D01*
X139728470Y-79482267D01*
X139444257Y-79299937D01*
X139287706Y-79206629D01*
X139272840Y-79199709D01*
X139159072Y-79230519D01*
X138946582Y-79379173D01*
X138627083Y-79652682D01*
X138192288Y-80058056D01*
X137748425Y-80489335D01*
X137320539Y-80914326D01*
X136937583Y-81302140D01*
X136622611Y-81628828D01*
X136398677Y-81870442D01*
X136288834Y-82003030D01*
X136284748Y-82009856D01*
X136272605Y-82100842D01*
X136318352Y-82249432D01*
X136433290Y-82475692D01*
X136628722Y-82799690D01*
X136915952Y-83241491D01*
X137298855Y-83810239D01*
X137638674Y-84310837D01*
X137942444Y-84759819D01*
X138192611Y-85131119D01*
X138371622Y-85398669D01*
X138461921Y-85536404D01*
X138467605Y-85545755D01*
X138456580Y-85677722D01*
X138373010Y-85934216D01*
X138233526Y-86266759D01*
X138183813Y-86372958D01*
X137966899Y-86846073D01*
X137735480Y-87382898D01*
X137547490Y-87847389D01*
X137412031Y-88192133D01*
X137304434Y-88454125D01*
X137242259Y-88591053D01*
X137234529Y-88601604D01*
X137120178Y-88619080D01*
X136850624Y-88666966D01*
X136461708Y-88738443D01*
X135989271Y-88826697D01*
X135469153Y-88924909D01*
X134937194Y-89026264D01*
X134429235Y-89123946D01*
X133981118Y-89211137D01*
X133628681Y-89281022D01*
X133407766Y-89326783D01*
X133353581Y-89339722D01*
X133297609Y-89371654D01*
X133255358Y-89443774D01*
X133224927Y-89580424D01*
X133204415Y-89805949D01*
X133191921Y-90144692D01*
X133185545Y-90620996D01*
X133183386Y-91259204D01*
X133183274Y-91520802D01*
X133183274Y-93648341D01*
X133694194Y-93749185D01*
X133978446Y-93803866D01*
X134402621Y-93883684D01*
X134915135Y-93979009D01*
X135464405Y-94080211D01*
X135616225Y-94108008D01*
X136123079Y-94206554D01*
X136564627Y-94303460D01*
X136903807Y-94389749D01*
X137103561Y-94456445D01*
X137136835Y-94476324D01*
X137218543Y-94617101D01*
X137335694Y-94889885D01*
X137465610Y-95240930D01*
X137491379Y-95316546D01*
X137661653Y-95785379D01*
X137873008Y-96314368D01*
X138079840Y-96789402D01*
X138080860Y-96791608D01*
X138425296Y-97536785D01*
X137292473Y-99203106D01*
X136159651Y-100869426D01*
X137614116Y-102326319D01*
X138054024Y-102759923D01*
X138455256Y-103142148D01*
X138795276Y-103452591D01*
X139051550Y-103670847D01*
X139201542Y-103776509D01*
X139223059Y-103783213D01*
X139349386Y-103730418D01*
X139607161Y-103583640D01*
X139968223Y-103360287D01*
X140404413Y-103077768D01*
X140876013Y-102761374D01*
X141354649Y-102438647D01*
X141781402Y-102157824D01*
X142129170Y-101936181D01*
X142370853Y-101790995D01*
X142478994Y-101739535D01*
X142610933Y-101783079D01*
X142861124Y-101897821D01*
X143177961Y-102059920D01*
X143211547Y-102077937D01*
X143638216Y-102291920D01*
X143930793Y-102396863D01*
X144112760Y-102397979D01*
X144207602Y-102300479D01*
X144208154Y-102299113D01*
X144255561Y-102183647D01*
X144368623Y-101909549D01*
X144538573Y-101498033D01*
X144756645Y-100970315D01*
X145014073Y-100347608D01*
X145302090Y-99651127D01*
X145581018Y-98976807D01*
X145887561Y-98232652D01*
X146169019Y-97543293D01*
X146416957Y-96929861D01*
X146622939Y-96413489D01*
X146778529Y-96015308D01*
X146875293Y-95756450D01*
X146905113Y-95659841D01*
X146830332Y-95549020D01*
X146634725Y-95372396D01*
X146373891Y-95177667D01*
X145631075Y-94561826D01*
X145050461Y-93855928D01*
X144639008Y-93074841D01*
X144403674Y-92233434D01*
X144351418Y-91346577D01*
X144389400Y-90937236D01*
X144596354Y-90087965D01*
X144952775Y-89337991D01*
X145436557Y-88694711D01*
X146025594Y-88165522D01*
X146697779Y-87757820D01*
X147431005Y-87479003D01*
X148203167Y-87336467D01*
X148992158Y-87337610D01*
X149775871Y-87489828D01*
X150532201Y-87800518D01*
X151239040Y-88277077D01*
X151534066Y-88546598D01*
X152099889Y-89238678D01*
X152493857Y-89994971D01*
X152718593Y-90793430D01*
X152776719Y-91612010D01*
X152670859Y-92428664D01*
X152403635Y-93221346D01*
X151977670Y-93968010D01*
X151395588Y-94646609D01*
X150745148Y-95177667D01*
X150474216Y-95380662D01*
X150282822Y-95555369D01*
X150213926Y-95660006D01*
X150250000Y-95774116D01*
X150352596Y-96046715D01*
X150513273Y-96456675D01*
X150723592Y-96982864D01*
X150975112Y-97604151D01*
X151259394Y-98299406D01*
X151538791Y-98976972D01*
X151847038Y-99721763D01*
X152132556Y-100411934D01*
X152386579Y-101026274D01*
X152600343Y-101543570D01*
X152765080Y-101942613D01*
X152872027Y-102202189D01*
X152911655Y-102299113D01*
X153005273Y-102397578D01*
X153186355Y-102397290D01*
X153478205Y-102293073D01*
X153904124Y-102079751D01*
X153907492Y-102077937D01*
X154228180Y-101912391D01*
X154487416Y-101791803D01*
X154633595Y-101740012D01*
X154640046Y-101739535D01*
X154750089Y-101792068D01*
X154993034Y-101938152D01*
X155341778Y-102160510D01*
X155769221Y-102441866D01*
X156243026Y-102761374D01*
X156725410Y-103084878D01*
X157160172Y-103366219D01*
X157519153Y-103587989D01*
X157774192Y-103732780D01*
X157895980Y-103783213D01*
X158008126Y-103716926D01*
X158233601Y-103531665D01*
X158549875Y-103247833D01*
X158934419Y-102885830D01*
X159364703Y-102466058D01*
X159505424Y-102325818D01*
X160960388Y-100868424D01*
X159852930Y-99243120D01*
X159516366Y-98744003D01*
X159220979Y-98296052D01*
X158983340Y-97925217D01*
X158820021Y-97657450D01*
X158747592Y-97518700D01*
X158745471Y-97508829D01*
X158783655Y-97378048D01*
X158886356Y-97114970D01*
X159035801Y-96763682D01*
X159140697Y-96528501D01*
X159336828Y-96078241D01*
X159521534Y-95623349D01*
X159664733Y-95238997D01*
X159703632Y-95121910D01*
X159814149Y-94809232D01*
X159922183Y-94567635D01*
X159981522Y-94476324D01*
X160112472Y-94420441D01*
X160398273Y-94341222D01*
X160801843Y-94247643D01*
X161286097Y-94148685D01*
X161502815Y-94108008D01*
X162053142Y-94006882D01*
X162581012Y-93908963D01*
X163034839Y-93823882D01*
X163363042Y-93761269D01*
X163424845Y-93749185D01*
X163935765Y-93648341D01*
X163935765Y-91520802D01*
X163934617Y-90821219D01*
X163929907Y-90291920D01*
X163919735Y-89908564D01*
X163902198Y-89646807D01*
X163875396Y-89482306D01*
X163837429Y-89390716D01*
X163786396Y-89347696D01*
X163765458Y-89339722D01*
X163639172Y-89311431D01*
X163360171Y-89254987D01*
X162964298Y-89177205D01*
X162487391Y-89084903D01*
X161965293Y-88984896D01*
X161433843Y-88884002D01*
X160928882Y-88789036D01*
X160486250Y-88706815D01*
X160141788Y-88644157D01*
X159931337Y-88607876D01*
X159884510Y-88601604D01*
X159842088Y-88517665D01*
X159748185Y-88294059D01*
X159620359Y-87973095D01*
X159571549Y-87847389D01*
X159374681Y-87361725D01*
X159142853Y-86825155D01*
X158935226Y-86372958D01*
X158782451Y-86027190D01*
X158680809Y-85743073D01*
X158646879Y-85569075D01*
X158652288Y-85545755D01*
X158723998Y-85435659D01*
X158887737Y-85190797D01*
X159125931Y-84837244D01*
X159421004Y-84401073D01*
X159755382Y-83908360D01*
X159821501Y-83811102D01*
X160209480Y-83234865D01*
X160494678Y-82796073D01*
X160688466Y-82474523D01*
X160802213Y-82250012D01*
X160847289Y-82102339D01*
X160835065Y-82011299D01*
X160834753Y-82010719D01*
X160738543Y-81891140D01*
X160525743Y-81659958D01*
X160219417Y-81341138D01*
X159842631Y-80958649D01*
X159418451Y-80536456D01*
X159370614Y-80489335D01*
X158836044Y-79971664D01*
X158423504Y-79591553D01*
X158124704Y-79341994D01*
X157931360Y-79215974D01*
X157846199Y-79199709D01*
X157721913Y-79270664D01*
X157463995Y-79434565D01*
X157099076Y-79673903D01*
X156653786Y-79971171D01*
X156154753Y-80308863D01*
X156038248Y-80388310D01*
X154384153Y-81517871D01*
X153637162Y-81178840D01*
X153182888Y-80981262D01*
X152695265Y-80782554D01*
X152276071Y-80624122D01*
X152257604Y-80617603D01*
X151929710Y-80497577D01*
X151676950Y-80396084D01*
X151553794Y-80335002D01*
X151553585Y-80334826D01*
X151514507Y-80224416D01*
X151448078Y-79952878D01*
X151360895Y-79550737D01*
X151259552Y-79048518D01*
X151150643Y-78476746D01*
X151141733Y-78428543D01*
X151032485Y-77839438D01*
X150932192Y-77304688D01*
X150847317Y-76858279D01*
X150784324Y-76534197D01*
X150749675Y-76366426D01*
X150749070Y-76363864D01*
X150727984Y-76292496D01*
X150686983Y-76238612D01*
X150601499Y-76199755D01*
X150446969Y-76173469D01*
X150198825Y-76157298D01*
X149832502Y-76148783D01*
X149323436Y-76145469D01*
X148647059Y-76144899D01*
X148559520Y-76144899D01*
X147862807Y-76145314D01*
G36*
X127414723Y-107823786D02*
G01*
X127029687Y-108075433D01*
X126843973Y-108300711D01*
X126696841Y-108709503D01*
X126685155Y-109032980D01*
X126711627Y-109465507D01*
X127709136Y-109902116D01*
X128194151Y-110125180D01*
X128511063Y-110304619D01*
X128675848Y-110460041D01*
X128704484Y-110611053D01*
X128612947Y-110777261D01*
X128512010Y-110887427D01*
X128218310Y-111064098D01*
X127898865Y-111076477D01*
X127605480Y-110938790D01*
X127389958Y-110665264D01*
X127351410Y-110568679D01*
X127166768Y-110267015D01*
X126954344Y-110138454D01*
X126662968Y-110028472D01*
X126662968Y-110445434D01*
X126688728Y-110729172D01*
X126789634Y-110968446D01*
X127001126Y-111243174D01*
X127032561Y-111278874D01*
X127267810Y-111523291D01*
X127470029Y-111654460D01*
X127723020Y-111714804D01*
X127932752Y-111734566D01*
X128307898Y-111739489D01*
X128574953Y-111677103D01*
X128741554Y-111584477D01*
X129003394Y-111380789D01*
X129184642Y-111160501D01*
X129299347Y-110883457D01*
X129361561Y-110509500D01*
X129385333Y-109998474D01*
X129387231Y-109739108D01*
X129380779Y-109428162D01*
X128793189Y-109428162D01*
X128786374Y-109594974D01*
X128769389Y-109622293D01*
X128657301Y-109585181D01*
X128416085Y-109486964D01*
X128093695Y-109347323D01*
X128026276Y-109317310D01*
X127618843Y-109110128D01*
X127394362Y-108928037D01*
X127345027Y-108757482D01*
X127463030Y-108584908D01*
X127560484Y-108508654D01*
X127912132Y-108356153D01*
X128241266Y-108381348D01*
X128516812Y-108567491D01*
X128707694Y-108897831D01*
X128768893Y-109160033D01*
X128793189Y-109428162D01*
X129380779Y-109428162D01*
X129374656Y-109133157D01*
X129328323Y-108684831D01*
X129236540Y-108358372D01*
X129087612Y-108118024D01*
X128869849Y-107928029D01*
X128774910Y-107866629D01*
X128343644Y-107706726D01*
X127871479Y-107696664D01*
X127414723Y-107823786D01*
G37*
X127414723Y-107823786D02*
X127029687Y-108075433D01*
X126843973Y-108300711D01*
X126696841Y-108709503D01*
X126685155Y-109032980D01*
X126711627Y-109465507D01*
X127709136Y-109902116D01*
X128194151Y-110125180D01*
X128511063Y-110304619D01*
X128675848Y-110460041D01*
X128704484Y-110611053D01*
X128612947Y-110777261D01*
X128512010Y-110887427D01*
X128218310Y-111064098D01*
X127898865Y-111076477D01*
X127605480Y-110938790D01*
X127389958Y-110665264D01*
X127351410Y-110568679D01*
X127166768Y-110267015D01*
X126954344Y-110138454D01*
X126662968Y-110028472D01*
X126662968Y-110445434D01*
X126688728Y-110729172D01*
X126789634Y-110968446D01*
X127001126Y-111243174D01*
X127032561Y-111278874D01*
X127267810Y-111523291D01*
X127470029Y-111654460D01*
X127723020Y-111714804D01*
X127932752Y-111734566D01*
X128307898Y-111739489D01*
X128574953Y-111677103D01*
X128741554Y-111584477D01*
X129003394Y-111380789D01*
X129184642Y-111160501D01*
X129299347Y-110883457D01*
X129361561Y-110509500D01*
X129385333Y-109998474D01*
X129387231Y-109739108D01*
X129380779Y-109428162D01*
X128793189Y-109428162D01*
X128786374Y-109594974D01*
X128769389Y-109622293D01*
X128657301Y-109585181D01*
X128416085Y-109486964D01*
X128093695Y-109347323D01*
X128026276Y-109317310D01*
X127618843Y-109110128D01*
X127394362Y-108928037D01*
X127345027Y-108757482D01*
X127463030Y-108584908D01*
X127560484Y-108508654D01*
X127912132Y-108356153D01*
X128241266Y-108381348D01*
X128516812Y-108567491D01*
X128707694Y-108897831D01*
X128768893Y-109160033D01*
X128793189Y-109428162D01*
X129380779Y-109428162D01*
X129374656Y-109133157D01*
X129328323Y-108684831D01*
X129236540Y-108358372D01*
X129087612Y-108118024D01*
X128869849Y-107928029D01*
X128774910Y-107866629D01*
X128343644Y-107706726D01*
X127871479Y-107696664D01*
X127414723Y-107823786D01*
G36*
X130773888Y-107768714D02*
G01*
X130657569Y-107819551D01*
X130379930Y-108039437D01*
X130142511Y-108357379D01*
X129995678Y-108696674D01*
X129971780Y-108863945D01*
X130051902Y-109097476D01*
X130227651Y-109221044D01*
X130416084Y-109295866D01*
X130502366Y-109309653D01*
X130544379Y-109209596D01*
X130627340Y-108991857D01*
X130663736Y-108893472D01*
X130867825Y-108553146D01*
X131163315Y-108383396D01*
X131542210Y-108388616D01*
X131570274Y-108395302D01*
X131772559Y-108491209D01*
X131921273Y-108678183D01*
X132022845Y-108979197D01*
X132083705Y-109417222D01*
X132110285Y-110015232D01*
X132112776Y-110333432D01*
X132114013Y-110835030D01*
X132122111Y-111176970D01*
X132143654Y-111394227D01*
X132185227Y-111521780D01*
X132253411Y-111594605D01*
X132354791Y-111647678D01*
X132360650Y-111650350D01*
X132555884Y-111732893D01*
X132652604Y-111763289D01*
X132667466Y-111671394D01*
X132680189Y-111417387D01*
X132689857Y-111033790D01*
X132695550Y-110553124D01*
X132696684Y-110201368D01*
X132690894Y-109520695D01*
X132668247Y-109004309D01*
X132620829Y-108622067D01*
X132540727Y-108343825D01*
X132420027Y-108139440D01*
X132250814Y-107978768D01*
X132083722Y-107866629D01*
X131681938Y-107717384D01*
X131214328Y-107683723D01*
X130773888Y-107768714D01*
G37*
X130773888Y-107768714D02*
X130657569Y-107819551D01*
X130379930Y-108039437D01*
X130142511Y-108357379D01*
X129995678Y-108696674D01*
X129971780Y-108863945D01*
X130051902Y-109097476D01*
X130227651Y-109221044D01*
X130416084Y-109295866D01*
X130502366Y-109309653D01*
X130544379Y-109209596D01*
X130627340Y-108991857D01*
X130663736Y-108893472D01*
X130867825Y-108553146D01*
X131163315Y-108383396D01*
X131542210Y-108388616D01*
X131570274Y-108395302D01*
X131772559Y-108491209D01*
X131921273Y-108678183D01*
X132022845Y-108979197D01*
X132083705Y-109417222D01*
X132110285Y-110015232D01*
X132112776Y-110333432D01*
X132114013Y-110835030D01*
X132122111Y-111176970D01*
X132143654Y-111394227D01*
X132185227Y-111521780D01*
X132253411Y-111594605D01*
X132354791Y-111647678D01*
X132360650Y-111650350D01*
X132555884Y-111732893D01*
X132652604Y-111763289D01*
X132667466Y-111671394D01*
X132680189Y-111417387D01*
X132689857Y-111033790D01*
X132695550Y-110553124D01*
X132696684Y-110201368D01*
X132690894Y-109520695D01*
X132668247Y-109004309D01*
X132620829Y-108622067D01*
X132540727Y-108343825D01*
X132420027Y-108139440D01*
X132250814Y-107978768D01*
X132083722Y-107866629D01*
X131681938Y-107717384D01*
X131214328Y-107683723D01*
X130773888Y-107768714D01*
G36*
X134178165Y-107752508D02*
G01*
X133897957Y-107879965D01*
X133678020Y-108034405D01*
X133516872Y-108207094D01*
X133405612Y-108429864D01*
X133335342Y-108734551D01*
X133297163Y-109152989D01*
X133282176Y-109717012D01*
X133280592Y-110088429D01*
X133280592Y-111537411D01*
X133528467Y-111650350D01*
X133723700Y-111732893D01*
X133820421Y-111763289D01*
X133838925Y-111672843D01*
X133853604Y-111428968D01*
X133862592Y-111072864D01*
X133864500Y-110790109D01*
X133872701Y-110381611D01*
X133894812Y-110057546D01*
X133927099Y-109859102D01*
X133952747Y-109816929D01*
X134125149Y-109859995D01*
X134395796Y-109970451D01*
X134709180Y-110120191D01*
X135009795Y-110281103D01*
X135242135Y-110425080D01*
X135350694Y-110524012D01*
X135351124Y-110525082D01*
X135341786Y-110708176D01*
X135258056Y-110882959D01*
X135111050Y-111024924D01*
X134896489Y-111072406D01*
X134713117Y-111066873D01*
X134453405Y-111062802D01*
X134317078Y-111123648D01*
X134235203Y-111284405D01*
X134224879Y-111314719D01*
X134189386Y-111543981D01*
X134284302Y-111683187D01*
X134531706Y-111749530D01*
X134798959Y-111761799D01*
X135279886Y-111670846D01*
X135528844Y-111540954D01*
X135836311Y-111235812D01*
X135999375Y-110861261D01*
X136014008Y-110465490D01*
X135876182Y-110096689D01*
X135668865Y-109865588D01*
X135461875Y-109736204D01*
X135136536Y-109572403D01*
X134757413Y-109406292D01*
X134694220Y-109380910D01*
X134277782Y-109197136D01*
X134037724Y-109035166D01*
X133960519Y-108874145D01*
X134032641Y-108693220D01*
X134156454Y-108551795D01*
X134449095Y-108377660D01*
X134771087Y-108364599D01*
X135066374Y-108498789D01*
X135278901Y-108766408D01*
X135306796Y-108835453D01*
X135469201Y-109089404D01*
X135706304Y-109277937D01*
X136005497Y-109432656D01*
X136005497Y-108993934D01*
X135987887Y-108725879D01*
X135912380Y-108514608D01*
X135744963Y-108289197D01*
X135584248Y-108115573D01*
X135334338Y-107869727D01*
X135140167Y-107737661D01*
X134931613Y-107684687D01*
X134695543Y-107675933D01*
X134178165Y-107752508D01*
G37*
X134178165Y-107752508D02*
X133897957Y-107879965D01*
X133678020Y-108034405D01*
X133516872Y-108207094D01*
X133405612Y-108429864D01*
X133335342Y-108734551D01*
X133297163Y-109152989D01*
X133282176Y-109717012D01*
X133280592Y-110088429D01*
X133280592Y-111537411D01*
X133528467Y-111650350D01*
X133723700Y-111732893D01*
X133820421Y-111763289D01*
X133838925Y-111672843D01*
X133853604Y-111428968D01*
X133862592Y-111072864D01*
X133864500Y-110790109D01*
X133872701Y-110381611D01*
X133894812Y-110057546D01*
X133927099Y-109859102D01*
X133952747Y-109816929D01*
X134125149Y-109859995D01*
X134395796Y-109970451D01*
X134709180Y-110120191D01*
X135009795Y-110281103D01*
X135242135Y-110425080D01*
X135350694Y-110524012D01*
X135351124Y-110525082D01*
X135341786Y-110708176D01*
X135258056Y-110882959D01*
X135111050Y-111024924D01*
X134896489Y-111072406D01*
X134713117Y-111066873D01*
X134453405Y-111062802D01*
X134317078Y-111123648D01*
X134235203Y-111284405D01*
X134224879Y-111314719D01*
X134189386Y-111543981D01*
X134284302Y-111683187D01*
X134531706Y-111749530D01*
X134798959Y-111761799D01*
X135279886Y-111670846D01*
X135528844Y-111540954D01*
X135836311Y-111235812D01*
X135999375Y-110861261D01*
X136014008Y-110465490D01*
X135876182Y-110096689D01*
X135668865Y-109865588D01*
X135461875Y-109736204D01*
X135136536Y-109572403D01*
X134757413Y-109406292D01*
X134694220Y-109380910D01*
X134277782Y-109197136D01*
X134037724Y-109035166D01*
X133960519Y-108874145D01*
X134032641Y-108693220D01*
X134156454Y-108551795D01*
X134449095Y-108377660D01*
X134771087Y-108364599D01*
X135066374Y-108498789D01*
X135278901Y-108766408D01*
X135306796Y-108835453D01*
X135469201Y-109089404D01*
X135706304Y-109277937D01*
X136005497Y-109432656D01*
X136005497Y-108993934D01*
X135987887Y-108725879D01*
X135912380Y-108514608D01*
X135744963Y-108289197D01*
X135584248Y-108115573D01*
X135334338Y-107869727D01*
X135140167Y-107737661D01*
X134931613Y-107684687D01*
X134695543Y-107675933D01*
X134178165Y-107752508D01*
G36*
X136625774Y-107768120D02*
G01*
X136610922Y-108024163D01*
X136599284Y-108413290D01*
X136591803Y-108904724D01*
X136589405Y-109420171D01*
X136589405Y-111164409D01*
X136897371Y-111472375D01*
X137109594Y-111662143D01*
X137295889Y-111739010D01*
X137550513Y-111734145D01*
X137651585Y-111721766D01*
X137967486Y-111685739D01*
X138228779Y-111665096D01*
X138292470Y-111663190D01*
X138507189Y-111675661D01*
X138814283Y-111706967D01*
X138933354Y-111721766D01*
X139225806Y-111744656D01*
X139422343Y-111694935D01*
X139617221Y-111541436D01*
X139687569Y-111472375D01*
X139995535Y-111164409D01*
X139995535Y-107901811D01*
X139747661Y-107788872D01*
X139534221Y-107705219D01*
X139409346Y-107675933D01*
X139377328Y-107768486D01*
X139347404Y-108027087D01*
X139321565Y-108423148D01*
X139301807Y-108928079D01*
X139292277Y-109354669D01*
X139265650Y-111033404D01*
X139033361Y-111066248D01*
X138822089Y-111043284D01*
X138718567Y-110968930D01*
X138689631Y-110829916D01*
X138664925Y-110533799D01*
X138646416Y-110118101D01*
X138636065Y-109620343D01*
X138634573Y-109364189D01*
X138633083Y-107889609D01*
X138326607Y-107782771D01*
X138109688Y-107710131D01*
X137991695Y-107676256D01*
X137988292Y-107675933D01*
X137976454Y-107768017D01*
X137963443Y-108023356D01*
X137950349Y-108410584D01*
X137938267Y-108898334D01*
X137929825Y-109354669D01*
X137903198Y-111033404D01*
X137319290Y-111033404D01*
X137292495Y-109501870D01*
X137265701Y-107970336D01*
X136981045Y-107823135D01*
X136770876Y-107722051D01*
X136646486Y-107676181D01*
X136642896Y-107675933D01*
X136625774Y-107768120D01*
G37*
X136625774Y-107768120D02*
X136610922Y-108024163D01*
X136599284Y-108413290D01*
X136591803Y-108904724D01*
X136589405Y-109420171D01*
X136589405Y-111164409D01*
X136897371Y-111472375D01*
X137109594Y-111662143D01*
X137295889Y-111739010D01*
X137550513Y-111734145D01*
X137651585Y-111721766D01*
X137967486Y-111685739D01*
X138228779Y-111665096D01*
X138292470Y-111663190D01*
X138507189Y-111675661D01*
X138814283Y-111706967D01*
X138933354Y-111721766D01*
X139225806Y-111744656D01*
X139422343Y-111694935D01*
X139617221Y-111541436D01*
X139687569Y-111472375D01*
X139995535Y-111164409D01*
X139995535Y-107901811D01*
X139747661Y-107788872D01*
X139534221Y-107705219D01*
X139409346Y-107675933D01*
X139377328Y-107768486D01*
X139347404Y-108027087D01*
X139321565Y-108423148D01*
X139301807Y-108928079D01*
X139292277Y-109354669D01*
X139265650Y-111033404D01*
X139033361Y-111066248D01*
X138822089Y-111043284D01*
X138718567Y-110968930D01*
X138689631Y-110829916D01*
X138664925Y-110533799D01*
X138646416Y-110118101D01*
X138636065Y-109620343D01*
X138634573Y-109364189D01*
X138633083Y-107889609D01*
X138326607Y-107782771D01*
X138109688Y-107710131D01*
X137991695Y-107676256D01*
X137988292Y-107675933D01*
X137976454Y-107768017D01*
X137963443Y-108023356D01*
X137950349Y-108410584D01*
X137938267Y-108898334D01*
X137929825Y-109354669D01*
X137903198Y-111033404D01*
X137319290Y-111033404D01*
X137292495Y-109501870D01*
X137265701Y-107970336D01*
X136981045Y-107823135D01*
X136770876Y-107722051D01*
X136646486Y-107676181D01*
X136642896Y-107675933D01*
X136625774Y-107768120D01*
G36*
X140579807Y-108483505D02*
G01*
X140581042Y-109210858D01*
X140585827Y-109770384D01*
X140596178Y-110188888D01*
X140614113Y-110493171D01*
X140641648Y-110710037D01*
X140680799Y-110866290D01*
X140733584Y-110988733D01*
X140773553Y-111058623D01*
X141104554Y-111437634D01*
X141524225Y-111675203D01*
X141988548Y-111760447D01*
X142453504Y-111682486D01*
X142730377Y-111542384D01*
X143021036Y-111300025D01*
X143219131Y-111004027D01*
X143338650Y-110616388D01*
X143393582Y-110099104D01*
X143401363Y-109719611D01*
X143400314Y-109692340D01*
X142720439Y-109692340D01*
X142716287Y-110127511D01*
X142697260Y-110415588D01*
X142653505Y-110604047D01*
X142575168Y-110740366D01*
X142481568Y-110843192D01*
X142167228Y-111041670D01*
X141829720Y-111058626D01*
X141510734Y-110892917D01*
X141485907Y-110870463D01*
X141379938Y-110753661D01*
X141313493Y-110614691D01*
X141277521Y-110407859D01*
X141262970Y-110087466D01*
X141260669Y-109733249D01*
X141265657Y-109288254D01*
X141286305Y-108991394D01*
X141331139Y-108796297D01*
X141408685Y-108656593D01*
X141472269Y-108582397D01*
X141767643Y-108395270D01*
X142107828Y-108372770D01*
X142432536Y-108515699D01*
X142495201Y-108568759D01*
X142601876Y-108686592D01*
X142668459Y-108826993D01*
X142704209Y-109036156D01*
X142718388Y-109360278D01*
X142720439Y-109692340D01*
X143400314Y-109692340D01*
X143377840Y-109108477D01*
X143297947Y-108649305D01*
X143147694Y-108304094D01*
X142913092Y-108034839D01*
X142730377Y-107896838D01*
X142398267Y-107747748D01*
X142013337Y-107678545D01*
X141655523Y-107697069D01*
X141455305Y-107771796D01*
X141376735Y-107793063D01*
X141324598Y-107713769D01*
X141288204Y-107501281D01*
X141260669Y-107177610D01*
X141230523Y-106817124D01*
X141188649Y-106600236D01*
X141112456Y-106476212D01*
X140979351Y-106394317D01*
X140895726Y-106358051D01*
X140579443Y-106225559D01*
X140579807Y-108483505D01*
G37*
X140579807Y-108483505D02*
X140581042Y-109210858D01*
X140585827Y-109770384D01*
X140596178Y-110188888D01*
X140614113Y-110493171D01*
X140641648Y-110710037D01*
X140680799Y-110866290D01*
X140733584Y-110988733D01*
X140773553Y-111058623D01*
X141104554Y-111437634D01*
X141524225Y-111675203D01*
X141988548Y-111760447D01*
X142453504Y-111682486D01*
X142730377Y-111542384D01*
X143021036Y-111300025D01*
X143219131Y-111004027D01*
X143338650Y-110616388D01*
X143393582Y-110099104D01*
X143401363Y-109719611D01*
X143400314Y-109692340D01*
X142720439Y-109692340D01*
X142716287Y-110127511D01*
X142697260Y-110415588D01*
X142653505Y-110604047D01*
X142575168Y-110740366D01*
X142481568Y-110843192D01*
X142167228Y-111041670D01*
X141829720Y-111058626D01*
X141510734Y-110892917D01*
X141485907Y-110870463D01*
X141379938Y-110753661D01*
X141313493Y-110614691D01*
X141277521Y-110407859D01*
X141262970Y-110087466D01*
X141260669Y-109733249D01*
X141265657Y-109288254D01*
X141286305Y-108991394D01*
X141331139Y-108796297D01*
X141408685Y-108656593D01*
X141472269Y-108582397D01*
X141767643Y-108395270D01*
X142107828Y-108372770D01*
X142432536Y-108515699D01*
X142495201Y-108568759D01*
X142601876Y-108686592D01*
X142668459Y-108826993D01*
X142704209Y-109036156D01*
X142718388Y-109360278D01*
X142720439Y-109692340D01*
X143400314Y-109692340D01*
X143377840Y-109108477D01*
X143297947Y-108649305D01*
X143147694Y-108304094D01*
X142913092Y-108034839D01*
X142730377Y-107896838D01*
X142398267Y-107747748D01*
X142013337Y-107678545D01*
X141655523Y-107697069D01*
X141455305Y-107771796D01*
X141376735Y-107793063D01*
X141324598Y-107713769D01*
X141288204Y-107501281D01*
X141260669Y-107177610D01*
X141230523Y-106817124D01*
X141188649Y-106600236D01*
X141112456Y-106476212D01*
X140979351Y-106394317D01*
X140895726Y-106358051D01*
X140579443Y-106225559D01*
X140579807Y-108483505D01*
G36*
X145006377Y-107708387D02*
G01*
X144564303Y-107871518D01*
X144206155Y-108160051D01*
X144066081Y-108363160D01*
X143913378Y-108735856D01*
X143916550Y-109005339D01*
X144076826Y-109186582D01*
X144136129Y-109217400D01*
X144392172Y-109313488D01*
X144522933Y-109288871D01*
X144567224Y-109127515D01*
X144569481Y-109038385D01*
X144650567Y-108710481D01*
X144861917Y-108481101D01*
X145155673Y-108370314D01*
X145483975Y-108398190D01*
X145750846Y-108542973D01*
X145840983Y-108625559D01*
X145904874Y-108725751D01*
X145948033Y-108877204D01*
X145975974Y-109113575D01*
X145994211Y-109468519D01*
X146008259Y-109975692D01*
X146011897Y-110136278D01*
X146025164Y-110685636D01*
X146040249Y-111072281D01*
X146062871Y-111328096D01*
X146098751Y-111484964D01*
X146153610Y-111574769D01*
X146233166Y-111629395D01*
X146284101Y-111653529D01*
X146500409Y-111736054D01*
X146627740Y-111763289D01*
X146669813Y-111672329D01*
X146695494Y-111397332D01*
X146704921Y-110935123D01*
X146698232Y-110282527D01*
X146696149Y-110181872D01*
X146681450Y-109586482D01*
X146664069Y-109151730D01*
X146639336Y-108843625D01*
X146602580Y-108628179D01*
X146549130Y-108471403D01*
X146474316Y-108339307D01*
X146435181Y-108282702D01*
X146210789Y-108032253D01*
X145959820Y-107837446D01*
X145929094Y-107820442D01*
X145479075Y-107686185D01*
X145006377Y-107708387D01*
G37*
X145006377Y-107708387D02*
X144564303Y-107871518D01*
X144206155Y-108160051D01*
X144066081Y-108363160D01*
X143913378Y-108735856D01*
X143916550Y-109005339D01*
X144076826Y-109186582D01*
X144136129Y-109217400D01*
X144392172Y-109313488D01*
X144522933Y-109288871D01*
X144567224Y-109127515D01*
X144569481Y-109038385D01*
X144650567Y-108710481D01*
X144861917Y-108481101D01*
X145155673Y-108370314D01*
X145483975Y-108398190D01*
X145750846Y-108542973D01*
X145840983Y-108625559D01*
X145904874Y-108725751D01*
X145948033Y-108877204D01*
X145975974Y-109113575D01*
X145994211Y-109468519D01*
X146008259Y-109975692D01*
X146011897Y-110136278D01*
X146025164Y-110685636D01*
X146040249Y-111072281D01*
X146062871Y-111328096D01*
X146098751Y-111484964D01*
X146153610Y-111574769D01*
X146233166Y-111629395D01*
X146284101Y-111653529D01*
X146500409Y-111736054D01*
X146627740Y-111763289D01*
X146669813Y-111672329D01*
X146695494Y-111397332D01*
X146704921Y-110935123D01*
X146698232Y-110282527D01*
X146696149Y-110181872D01*
X146681450Y-109586482D01*
X146664069Y-109151730D01*
X146639336Y-108843625D01*
X146602580Y-108628179D01*
X146549130Y-108471403D01*
X146474316Y-108339307D01*
X146435181Y-108282702D01*
X146210789Y-108032253D01*
X145959820Y-107837446D01*
X145929094Y-107820442D01*
X145479075Y-107686185D01*
X145006377Y-107708387D01*
G36*
X148293038Y-107716521D02*
G01*
X147911710Y-107858126D01*
X147907348Y-107860848D01*
X147671509Y-108034420D01*
X147497401Y-108237265D01*
X147374949Y-108501610D01*
X147294074Y-108859683D01*
X147244702Y-109343710D01*
X147216756Y-109985918D01*
X147214306Y-110077415D01*
X147179121Y-111457057D01*
X147475216Y-111610173D01*
X147689460Y-111713646D01*
X147818819Y-111762675D01*
X147824802Y-111763289D01*
X147847188Y-111672822D01*
X147864971Y-111428791D01*
X147875909Y-111072256D01*
X147878294Y-110783551D01*
X147878349Y-110315861D01*
X147899729Y-110022157D01*
X147974254Y-109882071D01*
X148133745Y-109875236D01*
X148410022Y-109981286D01*
X148827144Y-110176228D01*
X149133863Y-110338137D01*
X149291617Y-110478608D01*
X149337993Y-110631707D01*
X149338064Y-110639284D01*
X149261535Y-110903023D01*
X149034954Y-111045502D01*
X148688193Y-111066140D01*
X148438420Y-111062560D01*
X148306722Y-111134497D01*
X148224592Y-111307289D01*
X148177322Y-111527428D01*
X148245443Y-111652335D01*
X148271093Y-111670211D01*
X148512577Y-111742006D01*
X148850744Y-111752171D01*
X149198998Y-111704582D01*
X149445768Y-111617613D01*
X149786946Y-111327938D01*
X149980883Y-110924707D01*
X150019290Y-110609679D01*
X149989980Y-110325527D01*
X149883918Y-110093574D01*
X149673908Y-109887561D01*
X149332749Y-109681227D01*
X148833245Y-109448311D01*
X148802815Y-109435147D01*
X148352862Y-109227281D01*
X148075207Y-109056806D01*
X147956196Y-108903614D01*
X147982176Y-108747597D01*
X148139496Y-108568647D01*
X148186540Y-108527466D01*
X148501655Y-108367791D01*
X148828167Y-108374514D01*
X149112531Y-108531067D01*
X149301200Y-108820882D01*
X149318730Y-108877768D01*
X149489444Y-109153667D01*
X149706062Y-109286559D01*
X150019290Y-109418261D01*
X150019290Y-109077513D01*
X149924009Y-108582227D01*
X149641202Y-108127933D01*
X149494036Y-107975956D01*
X149159502Y-107780899D01*
X148734069Y-107692600D01*
X148293038Y-107716521D01*
G37*
X148293038Y-107716521D02*
X147911710Y-107858126D01*
X147907348Y-107860848D01*
X147671509Y-108034420D01*
X147497401Y-108237265D01*
X147374949Y-108501610D01*
X147294074Y-108859683D01*
X147244702Y-109343710D01*
X147216756Y-109985918D01*
X147214306Y-110077415D01*
X147179121Y-111457057D01*
X147475216Y-111610173D01*
X147689460Y-111713646D01*
X147818819Y-111762675D01*
X147824802Y-111763289D01*
X147847188Y-111672822D01*
X147864971Y-111428791D01*
X147875909Y-111072256D01*
X147878294Y-110783551D01*
X147878349Y-110315861D01*
X147899729Y-110022157D01*
X147974254Y-109882071D01*
X148133745Y-109875236D01*
X148410022Y-109981286D01*
X148827144Y-110176228D01*
X149133863Y-110338137D01*
X149291617Y-110478608D01*
X149337993Y-110631707D01*
X149338064Y-110639284D01*
X149261535Y-110903023D01*
X149034954Y-111045502D01*
X148688193Y-111066140D01*
X148438420Y-111062560D01*
X148306722Y-111134497D01*
X148224592Y-111307289D01*
X148177322Y-111527428D01*
X148245443Y-111652335D01*
X148271093Y-111670211D01*
X148512577Y-111742006D01*
X148850744Y-111752171D01*
X149198998Y-111704582D01*
X149445768Y-111617613D01*
X149786946Y-111327938D01*
X149980883Y-110924707D01*
X150019290Y-110609679D01*
X149989980Y-110325527D01*
X149883918Y-110093574D01*
X149673908Y-109887561D01*
X149332749Y-109681227D01*
X148833245Y-109448311D01*
X148802815Y-109435147D01*
X148352862Y-109227281D01*
X148075207Y-109056806D01*
X147956196Y-108903614D01*
X147982176Y-108747597D01*
X148139496Y-108568647D01*
X148186540Y-108527466D01*
X148501655Y-108367791D01*
X148828167Y-108374514D01*
X149112531Y-108531067D01*
X149301200Y-108820882D01*
X149318730Y-108877768D01*
X149489444Y-109153667D01*
X149706062Y-109286559D01*
X150019290Y-109418261D01*
X150019290Y-109077513D01*
X149924009Y-108582227D01*
X149641202Y-108127933D01*
X149494036Y-107975956D01*
X149159502Y-107780899D01*
X148734069Y-107692600D01*
X148293038Y-107716521D01*
G36*
X152744194Y-107048177D02*
G01*
X152715674Y-107445945D01*
X152682917Y-107680341D01*
X152637524Y-107782583D01*
X152571097Y-107783891D01*
X152549558Y-107771686D01*
X152263054Y-107683313D01*
X151890370Y-107688473D01*
X151511472Y-107779318D01*
X151274486Y-107896838D01*
X151031502Y-108084581D01*
X150853875Y-108297049D01*
X150731937Y-108567019D01*
X150656021Y-108927272D01*
X150616457Y-109410586D01*
X150603580Y-110049742D01*
X150603349Y-110172352D01*
X150603198Y-111549613D01*
X150909674Y-111656451D01*
X151127346Y-111729135D01*
X151246772Y-111762976D01*
X151250287Y-111763289D01*
X151262048Y-111671519D01*
X151272057Y-111418397D01*
X151279553Y-111037202D01*
X151283774Y-110561216D01*
X151284424Y-110271824D01*
X151285778Y-109701230D01*
X151292748Y-109292280D01*
X151309697Y-109011987D01*
X151340988Y-108827365D01*
X151390983Y-108705426D01*
X151464045Y-108613182D01*
X151509662Y-108568759D01*
X151823023Y-108389748D01*
X152164972Y-108376342D01*
X152475221Y-108527736D01*
X152532594Y-108582397D01*
X152616747Y-108685177D01*
X152675119Y-108807091D01*
X152712379Y-108983369D01*
X152733198Y-109249242D01*
X152742246Y-109639938D01*
X152744194Y-110178624D01*
X152744194Y-111549613D01*
X153050670Y-111656451D01*
X153268343Y-111729135D01*
X153387768Y-111762976D01*
X153391283Y-111763289D01*
X153400270Y-111670147D01*
X153408370Y-111407421D01*
X153415260Y-111000164D01*
X153420615Y-110473427D01*
X153424109Y-109852262D01*
X153425418Y-109161721D01*
X153425420Y-109131005D01*
X153425420Y-106498721D01*
X153109136Y-106365309D01*
X152792853Y-106231897D01*
X152744194Y-107048177D01*
G37*
X152744194Y-107048177D02*
X152715674Y-107445945D01*
X152682917Y-107680341D01*
X152637524Y-107782583D01*
X152571097Y-107783891D01*
X152549558Y-107771686D01*
X152263054Y-107683313D01*
X151890370Y-107688473D01*
X151511472Y-107779318D01*
X151274486Y-107896838D01*
X151031502Y-108084581D01*
X150853875Y-108297049D01*
X150731937Y-108567019D01*
X150656021Y-108927272D01*
X150616457Y-109410586D01*
X150603580Y-110049742D01*
X150603349Y-110172352D01*
X150603198Y-111549613D01*
X150909674Y-111656451D01*
X151127346Y-111729135D01*
X151246772Y-111762976D01*
X151250287Y-111763289D01*
X151262048Y-111671519D01*
X151272057Y-111418397D01*
X151279553Y-111037202D01*
X151283774Y-110561216D01*
X151284424Y-110271824D01*
X151285778Y-109701230D01*
X151292748Y-109292280D01*
X151309697Y-109011987D01*
X151340988Y-108827365D01*
X151390983Y-108705426D01*
X151464045Y-108613182D01*
X151509662Y-108568759D01*
X151823023Y-108389748D01*
X152164972Y-108376342D01*
X152475221Y-108527736D01*
X152532594Y-108582397D01*
X152616747Y-108685177D01*
X152675119Y-108807091D01*
X152712379Y-108983369D01*
X152733198Y-109249242D01*
X152742246Y-109639938D01*
X152744194Y-110178624D01*
X152744194Y-111549613D01*
X153050670Y-111656451D01*
X153268343Y-111729135D01*
X153387768Y-111762976D01*
X153391283Y-111763289D01*
X153400270Y-111670147D01*
X153408370Y-111407421D01*
X153415260Y-111000164D01*
X153420615Y-110473427D01*
X153424109Y-109852262D01*
X153425418Y-109161721D01*
X153425420Y-109131005D01*
X153425420Y-106498721D01*
X153109136Y-106365309D01*
X152792853Y-106231897D01*
X152744194Y-107048177D01*
G36*
X160841014Y-107584241D02*
G01*
X160457327Y-107842358D01*
X160160817Y-108215150D01*
X159983689Y-108689537D01*
X159947864Y-109038702D01*
X159951933Y-109184408D01*
X159986000Y-109295968D01*
X160079649Y-109395916D01*
X160262466Y-109506786D01*
X160564037Y-109651112D01*
X161013947Y-109851429D01*
X161016225Y-109852435D01*
X161430351Y-110042111D01*
X161769945Y-110210538D01*
X162000297Y-110339585D01*
X162086700Y-110411119D01*
X162086723Y-110411696D01*
X162010570Y-110567468D01*
X161832488Y-110739168D01*
X161628046Y-110862857D01*
X161524468Y-110887427D01*
X161241889Y-110802447D01*
X160998544Y-110589624D01*
X160879810Y-110355632D01*
X160765586Y-110183129D01*
X160541843Y-109986682D01*
X160278828Y-109816973D01*
X160046785Y-109724682D01*
X159998262Y-109719611D01*
X159943644Y-109803056D01*
X159940353Y-110016357D01*
X159980492Y-110303962D01*
X160056165Y-110610322D01*
X160159474Y-110879885D01*
X160164692Y-110890351D01*
X160475583Y-111324433D01*
X160878506Y-111619690D01*
X161336096Y-111764608D01*
X161810987Y-111747674D01*
X162265812Y-111557374D01*
X162286035Y-111543993D01*
X162643820Y-111219742D01*
X162879080Y-110796683D01*
X163009275Y-110240406D01*
X163026747Y-110084116D01*
X163057693Y-109346418D01*
X163020594Y-109002401D01*
X162086723Y-109002401D01*
X162074589Y-109216995D01*
X162008222Y-109279623D01*
X161842767Y-109232770D01*
X161581963Y-109122015D01*
X161290434Y-108983184D01*
X161283189Y-108979507D01*
X161036087Y-108849536D01*
X160936915Y-108762800D01*
X160961370Y-108671870D01*
X161064344Y-108552392D01*
X161326319Y-108379490D01*
X161608445Y-108366785D01*
X161861510Y-108492617D01*
X162036305Y-108735325D01*
X162086723Y-109002401D01*
X163020594Y-109002401D01*
X162994041Y-108756189D01*
X162830738Y-108288083D01*
X162603399Y-107960145D01*
X162193070Y-107628752D01*
X161741092Y-107464358D01*
X161279671Y-107453881D01*
X160841014Y-107584241D01*
G37*
X160841014Y-107584241D02*
X160457327Y-107842358D01*
X160160817Y-108215150D01*
X159983689Y-108689537D01*
X159947864Y-109038702D01*
X159951933Y-109184408D01*
X159986000Y-109295968D01*
X160079649Y-109395916D01*
X160262466Y-109506786D01*
X160564037Y-109651112D01*
X161013947Y-109851429D01*
X161016225Y-109852435D01*
X161430351Y-110042111D01*
X161769945Y-110210538D01*
X162000297Y-110339585D01*
X162086700Y-110411119D01*
X162086723Y-110411696D01*
X162010570Y-110567468D01*
X161832488Y-110739168D01*
X161628046Y-110862857D01*
X161524468Y-110887427D01*
X161241889Y-110802447D01*
X160998544Y-110589624D01*
X160879810Y-110355632D01*
X160765586Y-110183129D01*
X160541843Y-109986682D01*
X160278828Y-109816973D01*
X160046785Y-109724682D01*
X159998262Y-109719611D01*
X159943644Y-109803056D01*
X159940353Y-110016357D01*
X159980492Y-110303962D01*
X160056165Y-110610322D01*
X160159474Y-110879885D01*
X160164692Y-110890351D01*
X160475583Y-111324433D01*
X160878506Y-111619690D01*
X161336096Y-111764608D01*
X161810987Y-111747674D01*
X162265812Y-111557374D01*
X162286035Y-111543993D01*
X162643820Y-111219742D01*
X162879080Y-110796683D01*
X163009275Y-110240406D01*
X163026747Y-110084116D01*
X163057693Y-109346418D01*
X163020594Y-109002401D01*
X162086723Y-109002401D01*
X162074589Y-109216995D01*
X162008222Y-109279623D01*
X161842767Y-109232770D01*
X161581963Y-109122015D01*
X161290434Y-108983184D01*
X161283189Y-108979507D01*
X161036087Y-108849536D01*
X160936915Y-108762800D01*
X160961370Y-108671870D01*
X161064344Y-108552392D01*
X161326319Y-108379490D01*
X161608445Y-108366785D01*
X161861510Y-108492617D01*
X162036305Y-108735325D01*
X162086723Y-109002401D01*
X163020594Y-109002401D01*
X162994041Y-108756189D01*
X162830738Y-108288083D01*
X162603399Y-107960145D01*
X162193070Y-107628752D01*
X161741092Y-107464358D01*
X161279671Y-107453881D01*
X160841014Y-107584241D01*
G36*
X168398784Y-107522036D02*
G01*
X167942649Y-107761880D01*
X167606017Y-108147875D01*
X167486438Y-108396030D01*
X167393389Y-108768626D01*
X167345757Y-109239409D01*
X167341241Y-109753224D01*
X167377537Y-110254918D01*
X167452342Y-110689337D01*
X167563352Y-111001329D01*
X167597471Y-111055061D01*
X168001581Y-111456150D01*
X168481564Y-111696378D01*
X169002389Y-111766680D01*
X169529027Y-111657993D01*
X169675587Y-111592832D01*
X169960999Y-111392026D01*
X170211493Y-111125769D01*
X170235166Y-111092001D01*
X170331390Y-110929257D01*
X170394997Y-110755287D01*
X170432573Y-110526269D01*
X170450704Y-110198380D01*
X170455979Y-109727799D01*
X170456071Y-109622293D01*
X170455829Y-109588717D01*
X169482891Y-109588717D01*
X169477228Y-110032841D01*
X169454945Y-110327566D01*
X169408102Y-110517936D01*
X169328758Y-110648993D01*
X169288255Y-110692791D01*
X169055400Y-110859226D01*
X168829324Y-110851635D01*
X168600738Y-110707266D01*
X168464403Y-110553141D01*
X168383660Y-110328178D01*
X168338317Y-109973429D01*
X168335206Y-109932054D01*
X168327467Y-109289142D01*
X168408354Y-108811653D01*
X168576772Y-108502520D01*
X168831627Y-108364676D01*
X168922601Y-108357159D01*
X169161483Y-108394962D01*
X169324887Y-108525932D01*
X169424794Y-108776407D01*
X169473189Y-109172727D01*
X169482891Y-109588717D01*
X170455829Y-109588717D01*
X170452447Y-109120849D01*
X170437227Y-108770483D01*
X170403892Y-108527701D01*
X170345923Y-108349013D01*
X170256801Y-108190925D01*
X170237106Y-108161533D01*
X169906080Y-107765342D01*
X169545381Y-107535347D01*
X169106250Y-107444049D01*
X168957131Y-107439589D01*
X168398784Y-107522036D01*
G37*
X168398784Y-107522036D02*
X167942649Y-107761880D01*
X167606017Y-108147875D01*
X167486438Y-108396030D01*
X167393389Y-108768626D01*
X167345757Y-109239409D01*
X167341241Y-109753224D01*
X167377537Y-110254918D01*
X167452342Y-110689337D01*
X167563352Y-111001329D01*
X167597471Y-111055061D01*
X168001581Y-111456150D01*
X168481564Y-111696378D01*
X169002389Y-111766680D01*
X169529027Y-111657993D01*
X169675587Y-111592832D01*
X169960999Y-111392026D01*
X170211493Y-111125769D01*
X170235166Y-111092001D01*
X170331390Y-110929257D01*
X170394997Y-110755287D01*
X170432573Y-110526269D01*
X170450704Y-110198380D01*
X170455979Y-109727799D01*
X170456071Y-109622293D01*
X170455829Y-109588717D01*
X169482891Y-109588717D01*
X169477228Y-110032841D01*
X169454945Y-110327566D01*
X169408102Y-110517936D01*
X169328758Y-110648993D01*
X169288255Y-110692791D01*
X169055400Y-110859226D01*
X168829324Y-110851635D01*
X168600738Y-110707266D01*
X168464403Y-110553141D01*
X168383660Y-110328178D01*
X168338317Y-109973429D01*
X168335206Y-109932054D01*
X168327467Y-109289142D01*
X168408354Y-108811653D01*
X168576772Y-108502520D01*
X168831627Y-108364676D01*
X168922601Y-108357159D01*
X169161483Y-108394962D01*
X169324887Y-108525932D01*
X169424794Y-108776407D01*
X169473189Y-109172727D01*
X169482891Y-109588717D01*
X170455829Y-109588717D01*
X170452447Y-109120849D01*
X170437227Y-108770483D01*
X170403892Y-108527701D01*
X170345923Y-108349013D01*
X170256801Y-108190925D01*
X170237106Y-108161533D01*
X169906080Y-107765342D01*
X169545381Y-107535347D01*
X169106250Y-107444049D01*
X168957131Y-107439589D01*
X168398784Y-107522036D01*
G36*
X157168089Y-107561050D02*
G01*
X156855777Y-107741699D01*
X156638639Y-107921009D01*
X156479831Y-108108872D01*
X156370428Y-108338611D01*
X156301500Y-108643548D01*
X156264119Y-109057008D01*
X156249358Y-109612312D01*
X156247642Y-110011491D01*
X156247642Y-111480852D01*
X156661244Y-111666264D01*
X157074845Y-111851677D01*
X157123504Y-110242303D01*
X157143610Y-109641252D01*
X157164702Y-109204989D01*
X157190834Y-108903691D01*
X157226063Y-108707534D01*
X157274443Y-108586696D01*
X157340028Y-108511352D01*
X157361070Y-108495044D01*
X157679895Y-108367675D01*
X158002163Y-108418076D01*
X158194002Y-108551795D01*
X158272038Y-108646552D01*
X158326055Y-108770894D01*
X158360384Y-108959397D01*
X158379357Y-109246634D01*
X158387306Y-109667181D01*
X158388638Y-110105459D01*
X158388900Y-110655318D01*
X158398315Y-111044524D01*
X158429829Y-111307021D01*
X158496387Y-111476756D01*
X158610934Y-111587674D01*
X158786415Y-111673721D01*
X159020797Y-111763134D01*
X159276785Y-111860461D01*
X159246313Y-110133139D01*
X159234042Y-109510450D01*
X159219685Y-109050286D01*
X159199110Y-108720548D01*
X159168180Y-108489137D01*
X159122763Y-108323952D01*
X159058722Y-108192895D01*
X158981514Y-108077267D01*
X158609014Y-107707886D01*
X158154478Y-107494282D01*
X157660103Y-107443116D01*
X157168089Y-107561050D01*
G37*
X157168089Y-107561050D02*
X156855777Y-107741699D01*
X156638639Y-107921009D01*
X156479831Y-108108872D01*
X156370428Y-108338611D01*
X156301500Y-108643548D01*
X156264119Y-109057008D01*
X156249358Y-109612312D01*
X156247642Y-110011491D01*
X156247642Y-111480852D01*
X156661244Y-111666264D01*
X157074845Y-111851677D01*
X157123504Y-110242303D01*
X157143610Y-109641252D01*
X157164702Y-109204989D01*
X157190834Y-108903691D01*
X157226063Y-108707534D01*
X157274443Y-108586696D01*
X157340028Y-108511352D01*
X157361070Y-108495044D01*
X157679895Y-108367675D01*
X158002163Y-108418076D01*
X158194002Y-108551795D01*
X158272038Y-108646552D01*
X158326055Y-108770894D01*
X158360384Y-108959397D01*
X158379357Y-109246634D01*
X158387306Y-109667181D01*
X158388638Y-110105459D01*
X158388900Y-110655318D01*
X158398315Y-111044524D01*
X158429829Y-111307021D01*
X158496387Y-111476756D01*
X158610934Y-111587674D01*
X158786415Y-111673721D01*
X159020797Y-111763134D01*
X159276785Y-111860461D01*
X159246313Y-110133139D01*
X159234042Y-109510450D01*
X159219685Y-109050286D01*
X159199110Y-108720548D01*
X159168180Y-108489137D01*
X159122763Y-108323952D01*
X159058722Y-108192895D01*
X158981514Y-108077267D01*
X158609014Y-107707886D01*
X158154478Y-107494282D01*
X157660103Y-107443116D01*
X157168089Y-107561050D01*
G36*
X164653188Y-107508331D02*
G01*
X164281353Y-107693728D01*
X163953160Y-108035089D01*
X163862776Y-108161533D01*
X163764312Y-108326988D01*
X163700426Y-108506694D01*
X163663877Y-108746535D01*
X163647424Y-109092393D01*
X163643811Y-109548989D01*
X163660126Y-110174705D01*
X163716839Y-110644515D01*
X163825597Y-110995014D01*
X163998047Y-111262796D01*
X164245839Y-111484457D01*
X164264046Y-111497581D01*
X164508252Y-111631831D01*
X164802321Y-111698254D01*
X165176313Y-111714630D01*
X165784295Y-111714630D01*
X165784551Y-112304843D01*
X165790208Y-112633554D01*
X165824685Y-112826365D01*
X165914780Y-112942006D01*
X166087293Y-113039201D01*
X166128722Y-113059058D01*
X166322597Y-113152116D01*
X166472707Y-113210892D01*
X166584325Y-113215968D01*
X166662726Y-113147924D01*
X166713185Y-112987343D01*
X166740976Y-112714805D01*
X166751374Y-112310893D01*
X166749653Y-111756188D01*
X166741089Y-111031271D01*
X166738415Y-110814439D01*
X166728779Y-110066993D01*
X166720147Y-109578058D01*
X165784807Y-109578058D01*
X165779550Y-109993073D01*
X165756186Y-110264609D01*
X165703326Y-110443704D01*
X165609582Y-110581398D01*
X165545935Y-110648556D01*
X165285736Y-110845057D01*
X165055362Y-110861052D01*
X164817652Y-110698780D01*
X164811627Y-110692791D01*
X164714911Y-110567380D01*
X164656076Y-110396935D01*
X164626400Y-110134447D01*
X164617158Y-109732906D01*
X164616991Y-109643947D01*
X164639325Y-109090598D01*
X164712026Y-108707004D01*
X164843638Y-108472833D01*
X165042706Y-108367750D01*
X165157758Y-108357159D01*
X165430818Y-108406853D01*
X165618117Y-108570481D01*
X165730860Y-108869859D01*
X165780254Y-109326805D01*
X165784807Y-109578058D01*
X166720147Y-109578058D01*
X166718565Y-109488494D01*
X166705364Y-109053260D01*
X166686767Y-108735612D01*
X166660366Y-108509867D01*
X166623751Y-108350345D01*
X166574515Y-108231365D01*
X166510247Y-108127246D01*
X166482690Y-108088066D01*
X166117145Y-107717976D01*
X165654969Y-107508144D01*
X165120341Y-107449645D01*
X164653188Y-107508331D01*
G37*
X164653188Y-107508331D02*
X164281353Y-107693728D01*
X163953160Y-108035089D01*
X163862776Y-108161533D01*
X163764312Y-108326988D01*
X163700426Y-108506694D01*
X163663877Y-108746535D01*
X163647424Y-109092393D01*
X163643811Y-109548989D01*
X163660126Y-110174705D01*
X163716839Y-110644515D01*
X163825597Y-110995014D01*
X163998047Y-111262796D01*
X164245839Y-111484457D01*
X164264046Y-111497581D01*
X164508252Y-111631831D01*
X164802321Y-111698254D01*
X165176313Y-111714630D01*
X165784295Y-111714630D01*
X165784551Y-112304843D01*
X165790208Y-112633554D01*
X165824685Y-112826365D01*
X165914780Y-112942006D01*
X166087293Y-113039201D01*
X166128722Y-113059058D01*
X166322597Y-113152116D01*
X166472707Y-113210892D01*
X166584325Y-113215968D01*
X166662726Y-113147924D01*
X166713185Y-112987343D01*
X166740976Y-112714805D01*
X166751374Y-112310893D01*
X166749653Y-111756188D01*
X166741089Y-111031271D01*
X166738415Y-110814439D01*
X166728779Y-110066993D01*
X166720147Y-109578058D01*
X165784807Y-109578058D01*
X165779550Y-109993073D01*
X165756186Y-110264609D01*
X165703326Y-110443704D01*
X165609582Y-110581398D01*
X165545935Y-110648556D01*
X165285736Y-110845057D01*
X165055362Y-110861052D01*
X164817652Y-110698780D01*
X164811627Y-110692791D01*
X164714911Y-110567380D01*
X164656076Y-110396935D01*
X164626400Y-110134447D01*
X164617158Y-109732906D01*
X164616991Y-109643947D01*
X164639325Y-109090598D01*
X164712026Y-108707004D01*
X164843638Y-108472833D01*
X165042706Y-108367750D01*
X165157758Y-108357159D01*
X165430818Y-108406853D01*
X165618117Y-108570481D01*
X165730860Y-108869859D01*
X165780254Y-109326805D01*
X165784807Y-109578058D01*
X166720147Y-109578058D01*
X166718565Y-109488494D01*
X166705364Y-109053260D01*
X166686767Y-108735612D01*
X166660366Y-108509867D01*
X166623751Y-108350345D01*
X166574515Y-108231365D01*
X166510247Y-108127246D01*
X166482690Y-108088066D01*
X166117145Y-107717976D01*
X165654969Y-107508144D01*
X165120341Y-107449645D01*
X164653188Y-107508331D01*
M02*
